<?xml version="1.0" standalone="no"?>
<!DOCTYPE svg PUBLIC "-//W3C//DTD SVG 20010904//EN"
 "http://www.w3.org/TR/2001/REC-SVG-20010904/DTD/svg10.dtd">
<svg version="1.0" xmlns="http://www.w3.org/2000/svg"
 width="512.000000pt" height="512.000000pt" viewBox="0 0 512.000000 512.000000"
 preserveAspectRatio="xMidYMid meet">
<metadata>
Created by potrace 1.14, written by Peter Selinger 2001-2017
</metadata>
<g transform="translate(0.000000,512.000000) scale(0.100000,-0.100000)"
fill="#000000" stroke="none">
<path d="M0 3298 c0 -1672 2 -1822 17 -1833 13 -9 13 -14 3 -20 -9 -5 -11 -4
-6 3 4 7 3 12 -2 12 -8 0 -9 -73 -2 -90 1 -3 2 -8 2 -11 -1 -3 6 -6 14 -6 12
0 12 3 -1 18 -15 15 -14 17 16 15 18 -1 34 -7 37 -14 2 -7 -2 -10 -12 -6 -9 3
-16 1 -16 -4 0 -6 9 -9 20 -7 12 2 23 -2 27 -10 3 -8 10 -15 16 -15 5 0 2 9
-8 20 -10 11 -16 23 -13 26 3 3 15 -7 27 -22 17 -21 19 -29 9 -36 -10 -6 -10
-8 0 -9 6 -1 18 -2 25 -3 6 -1 12 -12 11 -25 -1 -23 0 -23 13 -6 8 11 9 21 3
25 -5 3 -1 11 10 18 16 10 20 8 26 -11 16 -45 10 -103 -7 -76 -6 10 -9 10 -9
2 0 -16 17 -26 25 -13 3 5 11 10 17 10 6 0 3 -10 -8 -22 -13 -16 -14 -19 -2
-10 14 11 17 10 23 -7 3 -12 11 -21 16 -21 6 0 7 -6 3 -12 -5 -10 -4 -10 6 -1
14 13 23 45 12 40 -4 -2 -19 10 -34 25 -15 15 -22 28 -17 28 6 0 7 9 4 21 -6
19 -5 20 8 8 9 -9 12 -18 6 -25 -5 -6 -6 -14 -2 -17 3 -4 11 1 18 10 10 14 12
13 10 -8 -2 -27 14 -42 30 -29 8 7 12 5 12 -5 0 -8 -4 -12 -9 -9 -4 3 -8 -6
-8 -20 0 -14 -4 -26 -10 -26 -5 0 -10 -6 -10 -12 0 -7 14 3 30 22 16 19 30 29
30 23 0 -7 -4 -13 -10 -13 -5 0 -10 -12 -10 -26 0 -14 -4 -23 -8 -20 -5 3 -9
-1 -9 -9 0 -13 4 -12 19 2 21 19 24 6 4 -19 -7 -10 -17 -14 -21 -10 -5 4 -5 1
0 -7 7 -12 10 -11 21 3 7 10 16 18 20 19 5 1 9 10 9 19 1 9 -2 15 -6 12 -16
-10 -18 15 -1 27 9 7 14 9 10 5 -5 -5 1 -16 13 -24 11 -8 18 -20 15 -28 -4
-11 1 -13 19 -10 14 3 28 0 31 -6 4 -7 2 -8 -4 -4 -7 4 -12 1 -12 -6 0 -8 -3
-9 -8 -3 -8 12 -37 13 -48 2 -4 -4 2 -14 14 -23 13 -9 19 -20 15 -27 -4 -7 0
-6 10 2 20 16 23 2 5 -18 -10 -11 -10 -13 0 -7 7 4 12 2 12 -6 0 -11 2 -11 9
0 6 10 13 8 32 -7 13 -11 19 -20 13 -21 -5 0 -15 5 -22 12 -8 8 -12 8 -12 1 0
-6 7 -14 16 -17 9 -3 12 -11 8 -18 -4 -7 -4 -10 1 -6 4 4 13 2 21 -5 39 -35
49 -41 75 -42 16 -1 29 1 29 5 0 3 6 14 13 24 12 16 13 16 13 -3 0 -11 -4 -17
-8 -15 -9 6 -12 -9 -8 -41 1 -11 -2 -16 -7 -12 -4 5 -8 13 -8 18 0 5 -3 9 -7
9 -5 0 -8 -3 -7 -6 0 -4 -5 -10 -12 -15 -7 -4 -14 -15 -15 -23 -1 -9 2 -14 7
-10 5 3 7 9 4 14 -3 4 1 10 9 13 17 7 59 -36 49 -48 -5 -4 -2 -4 6 0 11 6 13
4 8 -9 -4 -10 -7 -20 -7 -22 0 -3 -5 -2 -12 2 -7 5 -8 3 -3 -6 6 -10 11 -9 22
5 7 11 13 23 13 28 0 4 5 5 10 2 8 -5 7 -11 -1 -21 -6 -8 -10 -17 -7 -20 3 -3
15 10 26 28 17 27 22 30 27 15 4 -9 12 -14 19 -10 6 4 4 -1 -4 -12 -14 -17
-13 -17 9 -10 15 4 21 3 17 -3 -3 -5 -14 -12 -25 -15 -15 -4 -19 0 -16 14 2
10 -1 21 -6 25 -6 3 -9 -9 -7 -30 1 -22 6 -32 13 -27 5 4 17 7 25 6 8 0 18 3
21 7 3 4 14 1 25 -7 18 -14 18 -14 -3 -8 -14 3 -23 1 -23 -6 0 -9 20 -15 42
-13 3 1 12 -6 19 -16 7 -9 9 -14 5 -10 -5 4 -15 3 -23 -4 -11 -9 -13 -8 -11 3
2 9 -5 14 -19 13 -13 -1 -20 3 -17 7 3 5 0 9 -6 9 -6 0 -8 5 -4 11 4 7 -2 7
-17 -1 -33 -17 -38 -24 -12 -16 16 5 23 2 28 -14 4 -13 12 -19 21 -16 14 5 29
-9 17 -17 -5 -2 -3 -2 4 -1 16 4 37 -22 24 -30 -5 -3 -12 -1 -14 4 -4 7 -5 6
-3 -1 1 -6 5 -10 10 -9 5 1 13 -4 18 -12 7 -9 8 -8 4 5 -4 12 -2 17 6 14 7 -2
12 -10 10 -17 -1 -7 6 -20 17 -30 12 -9 17 -20 14 -24 -4 -4 0 -4 9 -1 9 4 19
1 24 -6 4 -7 3 -10 -4 -5 -6 3 -14 1 -18 -5 -4 -7 -3 -9 3 -6 18 12 54 -23 48
-46 -4 -17 -2 -15 10 6 9 15 17 27 19 27 6 0 1 -24 -8 -38 -4 -7 -4 -12 1 -11
22 4 31 -3 28 -21 -4 -23 5 -26 23 -8 7 7 12 8 12 2 0 -5 -5 -15 -12 -22 -9
-9 -9 -12 0 -12 7 0 12 5 12 11 0 5 5 7 11 3 8 -4 8 -9 0 -17 -6 -6 -11 -18
-10 -27 0 -12 2 -12 7 2 5 13 11 15 22 8 12 -8 13 -11 1 -19 -8 -5 -9 -11 -3
-15 11 -7 25 21 16 35 -3 5 -1 9 5 9 18 0 23 -20 10 -38 -7 -9 -10 -14 -5 -10
5 4 17 3 28 -3 15 -8 17 -13 7 -25 -8 -10 -8 -14 0 -14 6 0 11 5 11 11 0 5 5
7 10 4 6 -4 8 -11 5 -16 -3 -5 2 -6 11 -2 11 4 15 2 11 -4 -4 -6 1 -21 12 -34
18 -22 18 -23 -3 -42 -16 -15 -14 -14 11 2 20 14 34 18 38 11 4 -6 16 -8 28
-4 20 6 20 5 8 -10 -12 -14 -11 -19 5 -32 16 -13 16 -15 2 -10 -10 3 -20 1
-22 -3 -3 -5 5 -8 17 -8 41 -1 48 -3 41 -14 -5 -8 -1 -8 14 0 14 7 23 8 27 1
4 -6 11 -7 17 -4 7 4 8 2 4 -4 -4 -6 6 -18 24 -27 17 -9 28 -20 25 -25 -4 -6
-1 -10 4 -10 6 0 11 8 11 18 1 10 6 6 14 -13 8 -19 15 -25 20 -17 4 7 13 12
19 12 7 0 4 -5 -5 -11 -10 -5 -15 -16 -11 -24 4 -12 -2 -14 -30 -10 -19 3 -38
2 -41 -3 -3 -6 4 -10 17 -10 39 0 60 -8 78 -30 l17 -22 1816 0 1816 0 0 1847
c-1 1187 -4 1842 -10 1831 -6 -9 -18 -15 -28 -13 -9 2 -20 4 -24 4 -5 1 -8 7
-8 15 0 8 -9 18 -20 21 -21 7 -26 20 -11 29 5 3 12 -1 15 -10 4 -9 9 -14 13
-11 3 4 0 13 -7 22 -9 11 -16 12 -25 5 -9 -8 -15 -8 -20 0 -3 5 -1 10 4 10 15
0 14 17 -2 23 -24 9 -13 -35 16 -64 15 -16 26 -33 23 -38 -6 -9 29 -24 50 -22
7 1 15 -6 18 -15 5 -13 3 -14 -6 -7 -7 6 -21 9 -31 8 -9 -2 -15 0 -12 5 4 7
-41 25 -56 22 -3 0 -6 6 -6 14 0 8 4 14 9 14 5 0 6 5 3 11 -5 7 -16 5 -33 -6
l-27 -16 24 21 c27 23 21 40 -6 19 -15 -11 -16 -11 -6 1 17 19 16 30 -3 30 -9
0 -12 -5 -8 -12 4 -7 3 -9 -1 -5 -13 11 -15 37 -4 37 6 0 7 5 4 10 -4 7 -13 7
-26 0 -15 -9 -21 -7 -25 5 -3 8 -10 12 -15 9 -5 -3 -9 -2 -8 3 1 4 1 15 0 23
-1 13 -2 13 -11 0 -6 -9 -10 -10 -10 -3 0 17 14 23 30 13 7 -4 19 -6 27 -3 11
4 9 9 -6 20 -12 8 -18 20 -15 31 5 14 4 15 -5 2 -9 -13 -11 -13 -11 1 0 9 -7
19 -15 22 -9 4 -13 16 -10 36 2 17 0 33 -5 36 -5 3 -7 -7 -4 -21 5 -25 3 -26
-12 -13 -12 9 -15 10 -10 2 4 -7 4 -13 -1 -14 -4 0 -16 -2 -27 -4 -17 -3 -17
-2 1 18 11 12 23 29 27 37 4 8 -2 4 -14 -10 l-21 -25 5 25 c5 24 5 24 -6 -2
-6 -15 -18 -30 -25 -33 -8 -2 -11 0 -8 5 3 6 1 10 -4 10 -6 0 -11 5 -11 11 0
8 6 7 17 -2 15 -12 16 -12 10 4 -4 11 -3 16 3 12 6 -3 10 -1 10 4 0 18 -18 13
-42 -11 -14 -14 -19 -16 -15 -5 3 9 -1 21 -10 29 -14 11 -16 11 -10 -4 4 -13
1 -16 -15 -13 -11 3 -23 7 -27 11 -3 4 2 4 12 1 14 -5 17 -2 14 19 -2 14 -10
30 -18 35 -10 6 -11 9 -1 9 7 0 11 4 7 9 -3 6 -14 8 -25 6 -12 -2 -18 0 -14 6
3 6 9 8 12 5 3 -3 12 0 20 7 13 9 14 9 8 0 -5 -9 -2 -11 9 -7 9 4 15 7 13 8
-2 1 -12 8 -22 16 -13 10 -17 10 -12 3 4 -8 1 -13 -9 -13 -9 0 -14 4 -10 9 8
13 -24 43 -38 34 -7 -4 -8 0 -3 12 5 15 4 16 -8 5 -14 -10 -14 -14 -1 -27 8
-8 20 -11 26 -7 8 5 9 3 4 -6 -6 -9 -4 -11 4 -5 10 6 11 3 2 -14 -14 -25 -23
-28 -14 -3 3 9 3 14 -2 10 -4 -4 -16 4 -27 17 -12 15 -25 22 -36 19 -13 -5
-14 -4 -3 4 11 8 11 10 0 15 -11 4 -11 8 3 23 17 17 17 17 13 -4 -2 -12 0 -24
5 -27 5 -3 8 8 8 25 -1 35 0 35 -39 14 -29 -15 -30 -15 -20 4 8 15 7 23 -3 31
-7 6 -15 8 -19 5 -6 -6 -28 31 -25 43 3 13 -24 63 -34 63 -5 0 -6 5 -3 11 4 6
-2 5 -14 -3 -27 -17 -27 -26 2 -24 16 1 22 -5 22 -19 1 -12 7 -19 15 -17 12 3
13 1 2 -10 -11 -11 -14 -10 -22 2 -5 8 -6 18 -3 23 3 4 -1 7 -8 6 -8 -1 -22 1
-32 6 -13 5 -15 11 -7 20 8 9 8 15 0 20 -5 3 -10 0 -10 -7 0 -7 -9 2 -20 20
-11 18 -25 30 -30 27 -6 -3 -10 -2 -10 3 0 5 -14 8 -30 7 -17 -1 -33 2 -37 8
-3 5 -1 7 4 4 6 -4 13 0 17 8 3 8 1 17 -4 20 -7 4 -6 13 0 25 14 26 9 42 -18
61 -12 8 -19 20 -15 24 5 5 0 3 -9 -4 -19 -14 -24 -41 -8 -41 5 0 7 8 4 18 -5
16 -5 16 6 -1 6 -9 15 -15 20 -12 16 10 21 -29 5 -44 -14 -14 -16 -14 -13 -1
2 9 -3 14 -12 12 -8 -2 -12 0 -8 4 4 4 0 13 -9 19 -14 11 -15 17 -6 37 11 24
3 53 -14 53 -13 0 -75 47 -69 53 3 2 13 -1 23 -9 11 -9 14 -10 9 -2 -13 23
-40 31 -66 20 -40 -16 -49 -16 -43 1 4 10 2 13 -5 8 -7 -4 -14 0 -18 11 -3 10
-10 26 -15 37 -7 13 -7 16 0 11 6 -3 11 -1 11 4 0 6 -7 11 -15 11 -13 0 -13 4
2 28 l17 27 -22 -22 c-13 -13 -19 -29 -16 -37 3 -9 1 -16 -5 -16 -6 0 -10 3
-9 8 3 10 -25 52 -35 52 -4 0 -5 -5 -1 -12 5 -7 3 -8 -5 -3 -9 5 -10 10 -2 18
7 7 7 14 1 23 -7 8 -6 13 4 17 10 4 13 1 9 -9 -3 -7 0 -14 7 -14 6 0 8 -5 4
-12 -6 -9 -3 -9 9 0 9 8 22 10 29 6 10 -6 10 -4 0 9 -8 9 -11 21 -8 26 4 6 -2
8 -13 6 -18 -3 -37 18 -33 38 3 12 -7 8 -28 -13 -12 -12 -26 -18 -33 -13 -7 4
-18 8 -24 8 -7 0 -12 3 -10 6 5 14 -36 47 -51 43 -13 -4 -13 -3 1 6 17 11 18
13 1 31 -9 10 -20 16 -25 14 -4 -3 -11 -1 -14 5 -5 8 -12 7 -23 -2 -15 -12
-16 -11 -3 5 9 11 10 17 2 17 -6 0 -11 5 -11 11 0 8 4 8 14 0 11 -9 15 -8 20
5 7 18 -21 45 -40 37 -6 -2 -10 -14 -8 -26 4 -21 4 -21 -5 -2 -4 11 -5 25 -1
30 4 6 7 22 5 38 -2 15 2 27 8 27 16 1 -23 23 -46 27 -11 2 -16 -1 -12 -8 4
-6 14 -8 23 -4 9 3 13 3 9 -1 -4 -4 -2 -13 4 -21 6 -7 7 -13 2 -13 -5 0 -10
-7 -10 -15 0 -8 4 -12 9 -9 4 3 8 0 8 -6 0 -7 -6 -10 -13 -7 -6 2 -21 0 -32
-5 -15 -7 -14 -4 5 12 17 15 19 20 8 16 -11 -3 -17 -1 -15 6 1 7 -3 12 -10 13
-6 0 -14 3 -18 7 -9 9 17 5 33 -6 24 -15 25 3 1 23 -24 20 -41 20 -1837 21
l-1812 0 0 -1822z m3662 1680 c-6 -6 -7 0 -4 19 5 21 7 23 10 9 2 -10 0 -22
-6 -28z m68 27 c11 -13 10 -14 -4 -9 -9 3 -16 10 -16 15 0 13 6 11 20 -6z m44
-83 c2 -4 -4 -8 -14 -8 -10 0 -16 4 -14 8 3 4 9 8 14 8 5 0 11 -4 14 -8z m30
-72 c-6 -6 -10 -3 -10 10 0 13 4 16 10 10 7 -7 7 -13 0 -20z m126 -18 c0 -4
-9 -8 -21 -9 -17 -2 -18 1 -9 12 12 14 30 12 30 -3z m-70 -6 c0 -7 -40 -14
-44 -7 -3 4 6 8 20 9 13 1 24 0 24 -2z m40 -21 c0 -1 -6 -7 -13 -13 -10 -8
-13 -6 -13 7 0 11 6 17 13 14 7 -3 13 -6 13 -8z m60 -1 c0 -8 -5 -12 -10 -9
-6 4 -8 11 -5 16 9 14 15 11 15 -7z m27 -123 c0 -11 -5 -18 -9 -15 -4 3 -5 11
-1 19 7 21 12 19 10 -4z m119 -40 c-3 -4 3 -19 14 -31 11 -13 20 -20 20 -15 0
4 7 2 15 -5 11 -9 13 -15 5 -20 -8 -5 -6 -9 5 -13 9 -4 13 -3 10 2 -3 5 -1 12
4 15 5 3 11 -1 15 -9 6 -17 -9 -29 -26 -19 -6 4 -17 -1 -25 -11 -7 -11 -13
-14 -13 -9 0 6 5 15 12 22 16 16 -4 16 -22 0 -12 -11 -12 -10 -1 5 10 13 11
17 1 17 -7 0 -10 7 -7 15 4 8 2 17 -3 20 -5 3 -11 -3 -13 -12 -3 -13 -5 -12
-6 5 0 13 -5 20 -11 17 -17 -11 -11 7 8 21 20 16 25 17 18 5z m71 -117 c-3 -3
-12 -4 -19 -1 -8 3 -5 6 6 6 11 1 17 -2 13 -5z m213 -244 c0 -5 -2 -10 -4 -10
-3 0 -8 5 -11 10 -3 6 -1 10 4 10 6 0 11 -4 11 -10z m23 -13 c3 -8 -1 -14 -8
-14 -7 0 -11 6 -8 14 3 7 6 13 8 13 2 0 5 -6 8 -13z m34 -24 c-4 -3 1 -12 11
-20 15 -13 15 -13 -5 -3 -24 11 -31 30 -11 30 6 0 8 -3 5 -7z m122 -136 c8
-10 7 -14 -2 -14 -8 0 -14 6 -14 14 0 7 1 13 2 13 2 0 8 -6 14 -13z m294 -229
c21 -26 31 -45 23 -42 -9 3 -16 11 -16 17 0 5 -8 3 -18 -6 -15 -14 -19 -15
-19 -2 0 8 4 12 9 9 4 -3 8 0 8 5 0 6 -6 11 -12 11 -9 0 -8 4 2 11 12 9 10 10
-8 6 -20 -5 -21 -3 -11 9 11 13 8 14 -17 9 l-29 -7 25 15 c14 7 25 13 25 13 1
-1 18 -22 38 -48z m-43 -12 c0 -2 -8 -10 -17 -17 -16 -13 -17 -12 -4 4 13 16
21 21 21 13z m-2414 -193 c-2 -9 -9 -19 -17 -21 -9 -2 -10 -1 -3 5 6 4 10 16
8 26 -1 9 1 15 6 12 5 -3 7 -13 6 -22z m169 7 c10 -11 16 -20 13 -20 -3 0 -13
9 -23 20 -10 11 -16 20 -13 20 3 0 13 -9 23 -20z m320 0 c10 -11 16 -20 13
-20 -3 0 -13 9 -23 20 -10 11 -16 20 -13 20 3 0 13 -9 23 -20z m-1048 -12 c-3
-8 -6 -5 -6 6 -1 11 2 17 5 13 3 -3 4 -12 1 -19z m34 -1 c-10 -9 -11 -8 -5 6
3 10 9 15 12 12 3 -3 0 -11 -7 -18z m333 15 c2 -4 -4 -8 -14 -8 -10 0 -16 4
-14 8 3 4 9 8 14 8 5 0 11 -4 14 -8z m245 -29 c-7 -7 -14 -11 -17 -8 -3 3 -11
-4 -18 -14 -9 -13 -23 -18 -44 -16 -24 2 -33 -2 -39 -18 -6 -15 -10 -17 -16
-7 -5 8 -2 18 9 26 10 7 13 15 7 18 -5 4 -15 -3 -21 -14 -6 -11 -15 -18 -20
-15 -5 3 1 15 13 28 17 17 24 19 32 9 11 -14 39 -12 70 5 11 6 23 10 27 10 3
-1 10 1 14 6 4 4 2 7 -4 7 -7 0 -12 5 -12 11 0 8 5 8 15 -1 12 -10 13 -16 4
-27z m308 23 c0 -8 -6 -12 -15 -9 -11 5 -11 7 0 14 7 5 13 9 14 9 0 0 1 -6 1
-14z m54 -18 c-10 -11 -11 -9 -5 7 7 18 6 19 -12 5 -18 -14 -18 -14 -5 3 10
12 17 15 25 7 7 -7 6 -14 -3 -22z m265 8 c0 -14 -3 -23 -7 -20 -6 3 -6 22 0
42 3 10 7 -2 7 -22z m61 9 c0 -8 -4 -12 -9 -9 -5 3 -6 10 -3 15 9 13 12 11 12
-6z m74 -2 c13 -16 12 -17 -3 -4 -17 13 -22 21 -14 21 2 0 10 -8 17 -17z m204
-16 c1 -7 7 -11 14 -9 7 1 19 -5 27 -15 10 -14 13 -15 14 -4 0 11 4 9 15 -5 8
-10 14 -23 15 -29 0 -5 -5 -3 -10 5 -9 13 -10 13 -10 0 0 -13 -1 -13 -10 0 -5
8 -15 15 -22 15 -7 1 -12 7 -10 15 3 10 -3 9 -17 -4 -12 -11 -21 -16 -21 -11
0 4 -8 1 -17 -6 -10 -8 -14 -9 -10 -2 4 6 3 14 -3 18 -5 3 -10 -1 -10 -10 0
-9 -5 -13 -10 -10 -6 4 -8 10 -5 15 3 5 1 11 -4 14 -5 4 -8 -2 -6 -11 2 -10 4
-21 4 -24 2 -11 51 -7 51 4 0 6 3 7 8 3 4 -4 7 -13 7 -18 0 -6 6 -12 13 -14 7
-1 8 0 2 3 -5 2 -7 9 -4 14 3 6 12 5 22 -3 10 -8 13 -9 9 -1 -4 6 -3 14 2 17
5 3 11 -1 15 -9 3 -8 -1 -18 -7 -22 -10 -6 -9 -12 5 -25 10 -10 18 -14 18 -9
0 6 -5 13 -10 16 -8 5 -7 11 1 21 12 14 29 10 29 -7 0 -6 -5 -7 -12 -3 -7 5
-8 3 -2 -7 9 -14 14 -34 16 -56 1 -7 6 -13 11 -13 5 0 6 8 2 18 -13 32 -14 52
-3 52 7 0 6 6 -2 15 -11 14 -7 19 13 16 13 -2 7 11 -10 25 -15 10 -16 15 -5
26 11 11 12 10 6 -5 -5 -13 -2 -16 12 -10 10 4 15 2 11 -3 -3 -6 -1 -16 4 -24
8 -13 10 -13 18 0 6 8 13 11 18 7 4 -5 1 -12 -7 -17 -15 -10 -10 -13 25 -12
17 1 17 0 3 -4 -10 -3 -18 -10 -18 -15 0 -13 13 -11 40 8 23 15 24 16 12 0 -8
-9 -22 -19 -33 -22 -17 -6 -18 -9 -4 -34 8 -16 11 -31 8 -35 -4 -3 -2 -6 4 -6
20 0 22 13 5 38 -9 15 -12 23 -5 19 6 -4 14 -1 17 5 3 7 3 2 0 -11 -3 -13 -2
-21 3 -18 5 3 9 -5 9 -18 0 -13 -3 -22 -7 -19 -4 2 -9 -3 -12 -11 -4 -9 -1
-12 9 -8 19 7 18 -4 -4 -31 -9 -13 -24 -21 -32 -19 -13 4 -13 3 -1 -5 13 -9
13 -13 1 -27 -12 -14 -12 -18 1 -26 12 -7 12 -9 -1 -9 -12 0 -12 -2 -2 -9 10
-6 8 -10 -8 -14 -21 -5 -21 -6 -4 -33 20 -30 26 -54 14 -54 -4 0 -7 -11 -7
-25 0 -18 5 -25 19 -25 10 0 16 5 13 10 -4 6 -10 8 -15 5 -10 -6 -7 21 3 31 4
4 7 0 7 -10 0 -9 5 -14 10 -11 8 5 8 11 0 20 -8 9 -8 15 0 20 6 3 8 11 5 16
-4 5 -2 9 3 9 5 0 12 -9 15 -21 4 -13 10 -18 18 -13 8 5 10 3 4 -5 -5 -9 -10
-10 -18 -2 -16 16 -32 14 -18 -2 6 -8 8 -17 4 -21 -13 -12 -11 -36 2 -36 8 0
16 -4 19 -9 4 -5 -3 -7 -14 -4 -12 3 -20 0 -20 -6 0 -7 5 -9 13 -5 9 6 9 5 1
-7 -9 -11 -9 -17 1 -26 7 -6 16 -9 21 -5 4 4 4 1 0 -6 -4 -7 -11 -10 -16 -7
-5 3 -15 -3 -22 -12 -7 -10 -21 -19 -30 -21 -27 -4 -21 6 13 23 23 12 28 19
20 29 -6 7 -7 17 -3 21 4 5 1 5 -6 0 -11 -6 -12 -3 -4 12 9 15 7 19 -9 19 -10
0 -19 -4 -19 -8 0 -4 5 -8 11 -8 5 0 7 -5 4 -10 -9 -15 -37 9 -31 27 7 18 2
16 -19 -7 -14 -15 -15 -19 -4 -15 9 3 23 -3 33 -14 10 -11 23 -18 27 -15 22
13 6 -15 -16 -30 -21 -14 -23 -19 -13 -41 11 -24 38 -28 68 -10 5 3 10 1 10
-4 0 -6 -7 -11 -15 -11 -8 0 -15 -5 -15 -11 0 -6 9 -8 23 -3 21 6 21 6 -3 -15
l-25 -22 25 6 25 6 -25 -15 c-28 -16 -46 -11 -30 9 8 10 9 19 1 32 -6 11 -11
13 -11 5 0 -8 -5 -10 -12 -6 -9 5 -9 2 1 -9 11 -14 11 -20 1 -32 -7 -9 -10
-18 -6 -22 3 -3 6 0 6 8 1 8 8 2 16 -13 16 -31 30 -38 20 -11 -4 10 -4 14 0
10 4 -4 12 0 18 8 8 11 15 12 26 4 13 -9 13 -10 0 -6 -9 2 -22 -8 -32 -25 -22
-35 -23 -44 -3 -28 9 7 18 10 22 6 3 -3 1 -6 -5 -6 -6 0 -9 -8 -6 -17 5 -15 4
-16 -5 -3 -10 14 -16 7 -12 -13 1 -5 -3 -6 -9 -2 -5 3 -10 4 -10 1 0 -2 -3
-13 -7 -23 -6 -16 -5 -16 10 -4 23 18 32 8 18 -18 -9 -17 -8 -23 8 -33 18 -11
18 -12 -3 -30 -16 -15 -18 -21 -7 -25 11 -5 11 -7 0 -15 -10 -7 -8 -8 9 -5 27
6 20 -8 -8 -16 -11 -3 -18 -1 -15 3 3 5 1 12 -5 15 -8 5 -6 15 5 32 12 18 13
24 3 22 -27 -3 -39 1 -32 12 5 8 9 8 14 -1 5 -8 9 -7 13 5 5 11 3 14 -6 9 -9
-5 -9 -4 1 7 6 7 12 16 12 20 0 9 -27 5 -37 -6 -4 -4 -2 -5 5 -1 6 4 12 3 12
-2 0 -16 -13 -22 -27 -11 -9 9 -13 8 -13 0 0 -6 4 -11 10 -11 5 0 9 -3 9 -7
-3 -20 2 -34 11 -28 6 3 10 -1 10 -10 0 -13 -4 -14 -22 -5 -22 11 -22 11 1 -8
l24 -19 -22 -6 c-20 -5 -21 -8 -11 -27 11 -20 10 -21 -12 -15 -20 5 -20 4 -5
-5 9 -6 21 -9 26 -5 5 3 12 1 16 -5 5 -9 -6 -14 -26 -12 -3 1 -6 -9 -5 -21 1
-15 7 -21 19 -19 15 3 17 0 8 -17 -15 -27 -14 -31 10 -31 11 0 17 5 14 10 -4
6 -11 7 -17 4 -6 -4 -6 1 1 14 16 29 14 35 -10 29 -13 -3 -19 -1 -16 6 2 7 11
12 20 12 8 0 19 4 24 9 4 5 3 6 -3 3 -7 -4 -11 2 -10 16 0 12 -4 21 -11 20 -6
-1 -14 4 -17 12 -3 9 1 15 10 15 8 0 17 -7 20 -15 5 -13 9 -13 22 -3 12 10 14
10 8 1 -4 -7 -3 -13 2 -13 15 0 23 -28 10 -36 -6 -4 -9 -3 -6 2 3 5 0 15 -8
21 -7 7 -15 9 -19 4 -3 -5 -1 -12 5 -16 6 -4 8 -11 5 -16 -4 -5 1 -9 9 -9 8 0
17 -4 20 -9 4 -5 -3 -7 -14 -4 -12 3 -20 0 -20 -6 0 -7 5 -9 12 -5 7 4 8 3 4
-4 -14 -24 -15 -52 -1 -52 8 0 16 -4 19 -9 4 -5 -3 -7 -14 -4 -12 3 -20 0 -20
-6 0 -7 5 -9 13 -5 9 6 9 5 1 -7 -9 -11 -9 -17 1 -26 7 -6 16 -9 21 -5 4 4 4
1 0 -6 -4 -7 -11 -10 -16 -7 -5 3 -15 -3 -22 -12 -7 -10 -21 -19 -30 -21 -27
-4 -21 6 13 23 23 12 28 19 20 29 -6 7 -7 17 -3 21 4 5 1 5 -6 0 -11 -6 -12
-3 -4 12 9 15 7 19 -9 19 -10 0 -19 -4 -19 -8 0 -4 5 -8 11 -8 5 0 7 -5 4 -10
-9 -15 -37 9 -31 27 7 18 2 16 -19 -7 -14 -15 -15 -19 -4 -15 9 3 23 -3 33
-14 10 -11 23 -18 27 -15 22 13 6 -15 -16 -30 -21 -14 -23 -19 -13 -41 11 -24
38 -28 68 -10 5 3 10 1 10 -4 0 -6 -7 -11 -15 -11 -8 0 -15 -5 -15 -11 0 -6 9
-8 23 -3 21 6 21 6 -3 -15 l-25 -22 25 6 25 6 -25 -15 c-28 -16 -46 -11 -30 9
8 10 9 19 1 32 -6 11 -11 13 -11 5 0 -8 -5 -10 -12 -6 -9 5 -9 2 1 -9 11 -14
11 -20 1 -32 -7 -9 -10 -18 -6 -22 3 -3 6 0 6 8 1 8 8 2 16 -13 16 -31 30 -38
20 -11 -4 10 -4 14 0 10 4 -4 12 0 18 8 8 11 15 12 26 4 13 -9 13 -10 0 -6 -9
2 -22 -8 -32 -25 -22 -35 -23 -44 -3 -28 9 7 18 10 22 6 3 -3 1 -6 -5 -6 -6 0
-9 -8 -6 -17 5 -15 4 -16 -5 -3 -10 14 -16 7 -12 -13 1 -5 -3 -6 -9 -2 -5 3
-10 4 -10 1 0 -2 -3 -13 -7 -23 -6 -16 -5 -16 10 -4 23 18 32 8 18 -18 -9 -17
-8 -23 8 -33 18 -11 18 -12 -3 -30 -16 -15 -18 -21 -7 -25 11 -5 11 -7 0 -15
-10 -7 -8 -8 9 -5 27 6 20 -8 -8 -16 -11 -3 -18 -1 -15 3 3 5 1 12 -5 15 -8 5
-6 15 5 32 12 18 13 24 3 22 -27 -3 -39 1 -32 12 5 8 9 8 14 -1 5 -8 9 -7 13
5 5 11 3 14 -6 9 -9 -5 -9 -4 1 7 6 7 12 16 12 20 0 9 -27 5 -37 -6 -4 -4 -2
-5 5 -1 6 4 12 3 12 -2 0 -16 -13 -22 -27 -11 -9 9 -13 8 -13 0 0 -6 4 -11 10
-11 5 0 9 -3 9 -7 -3 -20 2 -34 11 -28 6 3 10 -1 10 -10 0 -13 -4 -14 -22 -5
-22 11 -22 11 1 -8 l24 -19 -22 -6 c-20 -5 -21 -8 -11 -27 11 -20 10 -21 -12
-15 -20 5 -20 4 -5 -5 9 -6 21 -9 26 -5 5 3 12 1 16 -5 5 -9 -6 -14 -26 -12
-3 1 -6 -9 -5 -21 1 -14 7 -21 17 -19 9 1 16 -5 16 -13 0 -10 -6 -14 -16 -10
-11 4 -9 0 5 -16 19 -22 19 -22 -3 -15 -14 5 -23 3 -23 -3 0 -6 3 -10 8 -10
18 3 32 -2 32 -12 0 -5 -4 -8 -8 -5 -4 2 -13 -4 -20 -15 -10 -16 -10 -21 3
-25 8 -3 12 -11 8 -18 -4 -6 0 -6 9 2 9 7 15 21 13 30 -1 9 2 25 7 36 6 11 6
16 1 13 -13 -8 -13 25 1 42 8 11 8 13 -1 7 -9 -5 -11 -2 -6 10 5 14 2 16 -16
11 -14 -3 -21 -1 -18 6 2 7 11 12 20 12 8 0 19 4 24 9 4 5 3 6 -3 3 -7 -4 -11
2 -10 16 0 12 -4 21 -11 20 -6 -1 -14 4 -17 12 -3 9 1 15 10 15 8 0 17 -7 20
-15 5 -13 9 -13 22 -3 12 10 14 10 8 1 -4 -7 -3 -13 2 -13 15 0 23 -28 10 -36
-6 -4 -9 -3 -6 2 3 5 0 15 -8 21 -7 7 -15 9 -19 4 -3 -5 -1 -12 5 -16 6 -4 8
-11 5 -16 -4 -5 1 -9 9 -9 8 0 17 -4 20 -9 4 -5 -3 -7 -14 -4 -12 3 -20 0 -20
-6 0 -7 6 -9 13 -5 10 6 10 4 0 -7 -15 -15 -17 -33 -4 -25 5 3 12 -1 15 -9 5
-13 2 -14 -17 -4 -20 11 -21 11 -8 -4 7 -10 10 -17 6 -17 -4 0 -2 -7 5 -15 9
-11 10 -18 1 -28 -6 -8 -10 -16 -8 -18 1 -2 0 -3 -2 -2 -2 2 -13 -12 -24 -29
-13 -22 -16 -33 -8 -36 8 -3 6 -9 -6 -17 -17 -13 -17 -14 -1 -20 9 -4 14 -13
11 -21 -4 -12 -8 -11 -18 3 -13 17 -13 17 -12 -2 1 -11 -3 -20 -10 -20 -6 0
-15 -4 -20 -8 -4 -5 -3 -8 2 -7 21 5 35 -1 33 -12 -4 -15 34 -17 39 -2 2 7 -4
11 -13 10 -9 0 -19 6 -22 14 -4 12 -3 13 10 3 17 -14 17 -15 21 59 1 26 8 53
15 60 15 15 27 4 16 -14 -16 -25 -15 -58 1 -65 13 -5 14 -7 3 -14 -11 -8 -11
-10 0 -18 11 -7 11 -9 -2 -14 -9 -4 -16 -13 -16 -22 0 -8 -4 -15 -10 -15 -5 0
-6 -8 -3 -17 4 -11 8 -12 11 -5 2 7 8 12 14 12 6 0 6 -6 -2 -15 -6 -8 -15 -14
-18 -13 -21 2 -32 -3 -26 -14 4 -6 3 -8 -4 -4 -6 3 -15 -1 -20 -10 -7 -13 -13
-14 -30 -5 -26 14 -32 14 -32 0 0 -5 5 -7 12 -3 7 4 3 -6 -9 -22 -11 -16 -23
-36 -26 -44 -4 -12 -6 -11 -6 3 -1 10 -5 16 -11 12 -5 -3 -7 -13 -4 -23 5 -15
4 -15 -6 1 -9 14 -15 16 -26 6 -22 -18 -30 -1 -9 19 13 12 15 13 9 2 -6 -12
-5 -13 8 -3 8 7 18 10 21 6 4 -3 10 2 13 11 5 14 9 15 16 4 7 -10 8 -8 4 5 -4
12 -2 16 6 11 7 -4 8 -3 4 5 -4 6 -12 9 -17 6 -5 -4 -9 0 -9 7 0 9 -3 9 -10
-2 -9 -13 -14 -7 -11 12 0 4 -6 5 -15 1 -12 -5 -12 -8 6 -20 11 -8 20 -19 20
-25 0 -7 -4 -7 -12 -1 -15 12 -72 -19 -60 -32 4 -4 2 -5 -5 -1 -6 3 -14 2 -18
-4 -3 -5 -1 -10 6 -10 7 0 9 -3 6 -6 -4 -4 -13 -1 -22 6 -12 10 -15 10 -15 -1
0 -8 -5 -6 -14 6 -7 10 -20 16 -29 12 -8 -3 -18 -3 -21 0 -3 4 -18 8 -32 9
-19 2 -23 0 -15 -9 7 -9 7 -17 -1 -27 -8 -12 -9 -12 -4 2 3 10 -2 22 -12 27
-9 6 -13 11 -9 11 12 0 -12 40 -24 40 -6 0 -3 -7 6 -16 21 -22 5 -33 -42 -29
-18 1 -36 -1 -38 -5 -3 -5 -13 -6 -24 -3 -12 3 -25 -4 -36 -19 -11 -15 -15
-17 -12 -5 4 9 2 17 -3 17 -6 0 -10 -4 -10 -10 0 -5 -5 -10 -11 -10 -8 0 -7 5
2 16 11 14 10 15 -7 12 -10 -1 -22 -7 -26 -13 -4 -5 -10 -6 -15 -2 -4 5 -1 12
7 17 9 6 10 10 3 10 -6 0 -15 -5 -18 -10 -4 -7 -12 -7 -25 0 -26 14 -34 12
-21 -4 9 -11 9 -16 0 -22 -7 -4 -9 -3 -5 4 3 6 2 13 -4 17 -5 3 -10 1 -10 -4
0 -6 -10 -11 -22 -10 -16 0 -18 2 -8 6 8 3 26 14 39 24 25 20 46 25 36 10 -3
-5 0 -13 6 -17 7 -4 9 -3 6 3 -8 13 24 13 41 0 8 -6 12 -6 12 2 0 6 3 10 8 10
37 -6 42 13 7 29 -21 10 -27 9 -31 -3 -8 -21 -19 -19 -33 8 l-11 22 6 -23 c5
-22 4 -23 -15 -12 -17 9 -22 8 -27 -5 -3 -8 -10 -12 -16 -9 -5 3 -4 11 3 20 8
10 8 14 0 14 -6 0 -11 -4 -11 -10 0 -5 -8 -7 -17 -3 -12 4 -9 -1 7 -15 28 -24
32 -21 -45 -27 -16 -2 -34 -4 -40 -5 -5 -1 -17 -2 -27 -1 -9 1 -24 -8 -33 -21
-12 -15 -15 -17 -12 -5 4 9 2 17 -3 17 -6 0 -10 -5 -10 -12 0 -6 -6 -3 -14 7
-7 10 -20 16 -29 12 -8 -3 -18 -3 -21 0 -3 4 -18 8 -32 9 -19 2 -23 0 -15 -9
7 -9 7 -17 -1 -27 -8 -12 -9 -12 -4 3 4 13 -2 21 -24 31 -17 7 -27 15 -24 19
4 4 13 2 21 -5 11 -8 12 -7 7 6 -6 17 -34 23 -34 7 0 -13 -23 -8 -54 13 -27
17 -28 17 -33 -4 -4 -16 -8 -18 -14 -8 -7 10 -9 10 -9 -2 0 -13 -2 -13 -9 -1
-8 13 -12 13 -26 1 -14 -12 -18 -12 -27 1 -8 12 -9 12 -5 -1 2 -8 -7 -23 -20
-33 -19 -15 -27 -17 -38 -7 -8 7 -15 9 -15 5 0 -4 -7 -1 -17 6 -15 13 -15 12
-4 -8 10 -19 9 -22 -4 -17 -8 3 -12 10 -9 15 8 13 -10 11 -25 -3 -11 -10 -13
-10 -7 0 4 6 2 12 -5 12 -6 0 -9 -8 -6 -20 3 -11 1 -18 -4 -14 -5 3 -9 12 -9
20 0 8 -4 13 -9 9 -5 -3 -12 -1 -16 5 -4 6 -11 8 -16 5 -5 -4 -3 -12 4 -19 6
-8 16 -11 21 -8 5 3 6 0 2 -6 -8 -13 -36 -5 -36 10 0 5 -6 6 -12 2 -10 -6 -10
-4 0 8 10 13 10 17 -3 22 -8 3 -15 12 -15 20 0 9 6 13 15 10 8 -3 13 -11 12
-17 -1 -7 8 -11 20 -11 14 1 20 -3 16 -10 -3 -6 -2 -7 3 -3 5 5 9 16 9 24 0 9
5 18 12 20 7 3 9 -3 6 -17 -5 -18 -2 -20 25 -15 17 3 34 1 37 -5 4 -6 13 -7
23 -1 9 4 24 7 33 6 10 -2 16 4 15 16 -1 20 -6 22 -31 13 -8 -3 -12 -10 -9
-15 6 -11 -25 -7 -44 5 -7 4 -19 2 -28 -5 -13 -11 -15 -10 -12 6 2 14 -3 20
-19 21 -12 1 -22 -2 -21 -5 2 -20 -3 -31 -12 -26 -6 4 -8 11 -5 16 4 5 1 17
-5 26 -9 15 -10 15 -5 -5 6 -22 5 -23 -15 -12 -19 10 -22 9 -27 -11 l-6 -22
-19 24 c-19 23 -19 23 -8 2 9 -19 8 -23 -5 -23 -9 0 -13 4 -10 10 6 9 -8 14
-27 11 -5 0 -8 3 -8 9 0 5 -5 10 -11 10 -8 0 -9 -4 0 -13 11 -14 5 -27 -11
-27 -5 0 -6 6 -2 13 4 6 3 8 -1 4 -11 -10 -15 -37 -6 -37 4 0 13 6 20 13 11 9
12 9 7 0 -5 -9 -2 -11 9 -6 12 4 13 8 5 13 -9 5 -9 9 -1 14 11 7 15 -5 12 -32
-2 -10 4 -9 22 3 17 11 27 13 32 5 3 -6 10 -8 15 -5 4 3 6 -4 3 -15 -8 -28
-22 -35 -17 -8 2 13 1 17 -2 9 -5 -11 -8 -11 -15 0 -8 11 -13 10 -27 -7 -18
-21 -19 -21 -30 -3 -10 16 -16 17 -33 8 -26 -13 -36 -5 -19 16 13 16 10 18
-14 9 -9 -3 -13 -11 -9 -17 3 -5 1 -7 -5 -3 -6 3 -13 2 -17 -4 -3 -5 -1 -10 6
-10 7 0 9 -3 6 -6 -4 -4 -18 1 -32 10 -14 9 -25 14 -25 10 0 -4 -7 0 -17 7
-15 13 -15 12 -4 -9 l12 -23 -30 16 c-29 14 -31 14 -32 -2 0 -16 -1 -15 -9 2
-7 19 -8 19 -15 2 -7 -17 -8 -17 -20 0 -8 10 -17 14 -22 9 -4 -5 -2 -11 5 -13
17 -6 15 -20 -3 -20 -8 0 -13 2 -10 5 2 3 -7 14 -21 24 -14 11 -22 23 -19 26
9 9 36 11 30 2 -3 -5 6 -7 20 -6 13 2 22 0 20 -5 -3 -4 -1 -10 5 -14 5 -3 10
-1 10 5 0 7 7 9 16 6 10 -4 13 -2 8 6 -5 7 -3 8 6 3 9 -6 11 -4 5 5 -5 9 -4
11 4 6 6 -4 9 -11 6 -16 -3 -4 2 -10 10 -13 9 -4 12 -1 9 8 -4 9 1 13 14 12
12 0 18 -5 15 -11 -4 -5 -1 -6 7 -1 7 5 25 9 39 10 15 0 26 7 26 15 0 7 6 15
14 18 9 3 11 0 6 -8 -5 -9 -4 -11 4 -6 16 10 4 25 -19 23 -10 -1 -17 -4 -14
-8 2 -4 -4 -13 -13 -20 -14 -12 -15 -11 -9 11 6 25 6 25 -5 3 -7 -13 -16 -23
-21 -23 -5 0 -6 5 -3 10 3 6 1 10 -4 10 -6 0 -11 -5 -11 -12 0 -6 -3 -8 -7 -4
-5 4 -8 12 -8 17 0 12 -6 13 -32 5 -13 -4 -23 -12 -23 -17 0 -5 -7 -9 -16 -9
-8 0 -13 4 -9 9 5 10 -25 31 -42 31 -4 -1 3 -7 16 -14 17 -9 20 -15 11 -21 -7
-4 -15 -3 -19 2 -10 15 -49 13 -55 -4 -4 -9 -1 -23 6 -31 11 -13 11 -14 -1 -7
-10 6 -13 4 -9 -6 4 -10 -1 -15 -12 -15 -21 0 -21 36 0 61 20 24 0 17 -22 -7
-11 -13 -17 -17 -13 -10 3 6 1 12 -4 12 -6 0 -11 5 -11 11 0 8 5 8 15 -1 10
-9 15 -9 15 -1 0 6 -5 11 -11 11 -5 0 -8 4 -5 9 3 5 -1 14 -9 21 -12 10 -18
10 -30 0 -20 -17 -19 -1 1 22 16 17 18 17 31 0 13 -15 13 -15 3 6 -13 27 -17
27 -42 0 -17 -20 -19 -20 -14 -4 4 12 0 24 -14 33 -11 8 -18 18 -16 22 3 4 -7
7 -22 8 -15 1 -21 -1 -13 -4 11 -5 11 -7 0 -14 -12 -7 -11 -9 1 -9 13 0 13 -2
0 -11 -13 -9 -12 -10 2 -5 11 3 17 1 15 -7 -1 -7 4 -11 11 -9 7 1 20 -11 30
-28 16 -28 40 -36 34 -11 -3 14 15 15 23 1 3 -6 0 -13 -8 -16 -15 -5 -19 -34
-5 -34 4 0 8 -5 8 -12 0 -9 -3 -9 -11 -1 -12 12 -42 6 -34 -6 2 -4 -9 -7 -24
-7 -28 0 -36 16 -16 33 4 4 5 3 1 -4 -8 -14 10 -27 25 -17 7 4 7 10 1 16 -6 6
-8 17 -5 24 3 8 1 14 -5 14 -6 0 -12 -4 -14 -9 -1 -5 -12 -3 -23 6 -20 15 -20
15 1 9 15 -4 21 -2 21 9 0 10 -6 13 -19 9 -10 -3 -18 0 -18 6 0 6 5 8 10 5 6
-3 10 -2 10 3 0 6 -17 17 -37 26 -34 15 -35 16 -8 11 24 -5 28 -4 18 6 -9 9
-10 16 -2 26 16 19 -1 16 -25 -4 -21 -18 -21 -18 -2 4 10 13 20 33 21 45 1 13
3 26 4 30 0 4 9 5 19 2 10 -4 13 -2 7 3 -9 7 -12 28 -5 36 10 10 6 56 -6 61
-8 3 -14 1 -14 -4 0 -6 6 -10 13 -10 8 -1 7 -4 -3 -13 -19 -15 -25 -41 -8 -31
7 4 5 -1 -4 -11 -21 -22 -37 -13 -18 10 7 8 9 15 5 15 -4 0 -1 7 6 16 12 15
11 16 -8 10 -12 -4 -24 -2 -28 3 -4 7 1 8 11 4 11 -4 15 -3 10 5 -3 6 -2 13 4
17 6 4 5 11 -3 19 -6 8 -15 12 -18 10 -3 -2 -6 4 -6 12 0 10 4 11 10 5 11 -11
37 4 37 21 0 6 -8 4 -17 -3 -14 -12 -16 -12 -8 0 6 11 4 13 -7 9 -8 -4 -15 0
-15 7 0 10 5 11 19 4 14 -7 18 -6 18 6 0 9 -4 14 -9 11 -5 -3 -12 1 -15 9 -5
13 -2 14 17 4 20 -11 21 -11 8 4 -7 10 -10 17 -6 17 4 0 2 7 -5 15 -10 11 -8
19 7 38 10 13 25 22 33 20 13 -4 13 -3 1 5 -13 9 -13 13 -1 27 12 14 12 18 -1
26 -12 7 -12 9 1 9 12 0 12 2 2 9 -10 6 -8 10 8 14 l22 6 -20 28 c-11 15 -21
30 -23 33 -2 3 6 16 18 29 25 26 22 44 -5 34 -15 -6 -15 -5 -3 11 10 12 17 14
25 6 5 -5 14 -10 20 -10 5 0 1 7 -10 15 -13 10 -15 14 -5 15 8 0 11 3 8 6 -4
4 -13 1 -21 -5 -10 -8 -16 -9 -21 -1 -3 6 -11 8 -16 4 -5 -3 -6 -11 -2 -17 13
-21 11 -35 -4 -41 -12 -5 -13 -9 -4 -20 8 -10 9 -16 1 -21 -6 -3 -8 -11 -5
-16 4 -5 2 -9 -3 -9 -5 0 -12 9 -15 21 -4 13 -10 18 -18 13 -8 -5 -10 -3 -4 5
5 9 10 10 18 2 6 -6 15 -11 21 -11 6 0 5 5 -2 12 -8 8 -9 15 0 25 6 7 8 17 4
20 -4 4 -11 1 -16 -7 -7 -11 -10 -11 -10 -2 0 7 7 15 15 18 8 4 13 10 10 14
-3 5 -1 11 5 15 6 4 8 11 5 16 -4 5 -1 9 5 9 6 0 9 4 5 10 -3 5 -13 7 -23 4
-15 -5 -15 -4 -2 6 13 10 11 11 -8 7 -12 -3 -20 -1 -16 4 3 5 13 9 22 10 12 0
13 2 3 6 -11 5 -11 7 0 15 12 7 11 11 -3 20 -15 11 -15 13 0 25 16 11 16 12 0
13 -10 0 -18 2 -18 4 0 2 -3 13 -6 23 -5 17 -5 17 6 1 15 -24 25 -23 27 2 1
11 -2 18 -7 15 -4 -3 -11 2 -14 10 -5 13 -2 14 17 4 20 -11 21 -11 8 4 -7 10
-11 17 -7 17 4 0 -1 11 -10 25 -9 14 -14 28 -10 32 3 3 6 1 6 -6 0 -7 5 -9 10
-6 6 4 7 11 4 17 -4 7 -2 8 4 4 7 -4 12 -5 12 -2 0 2 3 13 7 23 6 16 5 16 -10
4 -23 -18 -32 -8 -18 18 9 17 8 23 -8 33 -18 11 -18 12 3 30 16 15 18 21 7 25
-11 5 -11 7 0 15 10 7 8 8 -9 5 -27 -6 -20 8 8 16 11 3 18 1 15 -3 -3 -5 -1
-12 5 -15 8 -5 6 -15 -5 -32 -12 -18 -13 -24 -3 -22 27 3 39 -1 32 -12 -5 -8
-9 -8 -14 1 -5 8 -9 7 -13 -5 -5 -11 -3 -14 6 -9 9 5 9 4 0 -7 -7 -7 -13 -16
-13 -20 0 -9 27 -5 37 6 4 4 2 5 -4 1 -7 -4 -13 -3 -13 2 0 16 13 22 27 11 9
-9 13 -8 13 0 0 6 -5 11 -10 11 -6 0 -9 3 -9 8 3 19 -2 33 -11 27 -5 -3 -10 1
-10 10 0 13 4 14 23 5 21 -11 21 -11 -2 8 l-24 19 22 6 c20 5 21 8 11 27 -11
20 -10 21 12 15 20 -5 20 -4 5 5 -9 6 -21 9 -26 5 -5 -3 -12 -1 -16 5 -5 9 6
14 26 12 3 -1 6 9 5 21 -1 16 -7 21 -21 19 -16 -3 -17 -1 -6 12 7 9 9 21 5 28
-12 19 -16 50 -5 44 5 -3 12 2 16 12 9 24 8 27 -14 28 -12 1 -18 -5 -16 -15 1
-9 -2 -24 -6 -33 -6 -10 -5 -19 1 -23 6 -3 8 -20 5 -37 -5 -27 -3 -30 15 -25
14 3 20 1 17 -6 -2 -7 -11 -12 -20 -12 -8 0 -19 -4 -24 -9 -4 -5 -3 -6 3 -3 7
4 11 -2 10 -16 0 -12 4 -21 11 -20 6 1 14 -4 17 -12 3 -9 -1 -15 -10 -15 -8 0
-17 7 -20 15 -5 13 -9 13 -22 3 -12 -10 -14 -10 -8 0 4 6 3 12 -2 12 -15 0
-23 28 -10 36 6 4 9 3 6 -2 -3 -5 0 -15 8 -21 7 -7 15 -9 19 -4 3 5 1 12 -5
16 -6 4 -8 11 -5 16 4 5 -1 9 -9 9 -8 0 -17 4 -20 9 -4 5 3 7 14 4 12 -3 20 0
20 6 0 7 -6 9 -12 5 -10 -6 -10 -4 0 7 14 15 16 33 3 25 -5 -3 -12 1 -15 9 -5
13 -2 14 17 4 20 -11 21 -11 8 4 -7 10 -10 17 -6 17 4 0 2 7 -5 15 -10 11 -8
19 7 38 10 13 25 22 33 20 13 -4 13 -3 1 5 -13 9 -13 13 -1 27 12 14 12 18 -1
26 -12 7 -12 9 1 9 12 0 12 2 2 9 -10 6 -8 10 8 14 21 5 21 6 4 33 -20 30 -26
54 -14 54 4 0 8 11 8 25 0 18 -6 25 -20 25 -10 0 -16 -5 -13 -10 4 -6 10 -8
15 -5 10 6 7 -21 -3 -31 -4 -4 -7 0 -7 10 0 9 -5 14 -10 11 -8 -5 -8 -11 0
-20 8 -9 8 -15 0 -20 -6 -3 -8 -11 -5 -16 4 -5 2 -9 -3 -9 -5 0 -12 9 -15 21
-4 13 -10 18 -18 13 -8 -5 -10 -3 -4 5 5 9 10 10 18 2 16 -16 32 -14 18 2 -6
8 -8 17 -4 21 13 12 11 36 -2 36 -8 0 -16 4 -19 9 -4 5 3 7 14 4 12 -3 20 0
20 6 0 7 -5 9 -12 5 -10 -6 -10 -5 -2 7 9 11 9 17 -1 26 -7 6 -17 9 -21 5 -5
-4 -7 -4 -4 0 3 3 8 6 11 5 9 -3 39 24 39 35 0 6 -8 4 -17 -3 -14 -12 -16 -12
-8 0 6 11 4 13 -8 8 -14 -5 -15 -3 -4 13 6 11 15 20 20 20 4 0 6 4 2 10 -3 5
-13 7 -23 4 -14 -5 -14 -4 -2 4 10 8 18 8 27 1 21 -18 8 42 -15 68 -21 24 -16
32 7 11 11 -11 13 -10 8 5 -6 15 -3 16 13 7 10 -5 26 -7 34 -4 12 5 15 2 10
-9 -3 -9 -11 -14 -19 -11 -7 3 -15 -2 -19 -11 -3 -9 -2 -13 3 -10 6 3 15 -3
21 -12 8 -12 10 -13 7 -3 -3 9 1 24 8 34 8 10 11 24 8 32 -3 8 0 14 6 14 6 0
11 -4 11 -10 0 -5 5 -10 11 -10 8 0 9 4 0 13 -11 14 -5 27 11 27 5 0 6 -6 2
-12 -5 -10 -3 -10 7 0 12 11 12 14 -1 22 -8 6 -20 8 -27 6 -6 -3 -14 2 -17 11
-4 9 -9 13 -13 10 -3 -4 -1 -13 6 -20 9 -11 7 -19 -6 -35 -16 -19 -20 -20 -37
-7 -11 8 -14 16 -8 16 7 1 17 2 24 3 6 0 13 7 16 14 2 7 -2 10 -12 6 -22 -8
-20 13 1 25 11 6 24 6 35 0 10 -5 18 -7 18 -4 0 3 19 -4 43 -15 23 -12 34 -14
24 -6 -12 9 -14 16 -7 21 5 3 8 11 5 16 -4 5 -1 9 4 9 6 0 11 5 11 11 0 8 -5
8 -15 -1 -12 -10 -15 -10 -15 0 0 10 -3 10 -15 0 -8 -7 -12 -16 -9 -21 3 -5 0
-9 -5 -9 -6 0 -11 5 -11 10 0 6 -3 9 -7 9 -27 -4 -35 1 -23 16 6 8 15 14 18
13 22 -2 32 3 26 15 -4 6 1 5 12 -4 17 -14 54 -22 54 -12 0 3 -5 14 -11 26 -9
20 -9 20 4 5 17 -21 28 -23 23 -5 -1 6 -1 9 1 4 3 -4 10 -4 16 0 7 3 1 -6 -12
-20 -27 -29 -27 -29 7 -46 21 -11 24 -10 29 10 l6 22 19 -24 c19 -23 19 -23 8
-1 -9 18 -8 22 5 22 9 0 13 -4 10 -10 -6 -9 8 -14 28 -11 4 0 7 -4 7 -9 0 -6
5 -10 11 -10 8 0 9 4 0 13 -11 14 -5 27 11 27 5 0 6 -6 2 -12 -4 -7 -3 -9 1
-5 11 10 15 37 6 37 -4 0 -13 -6 -20 -12 -11 -10 -12 -10 -7 -1 5 9 2 11 -9 6
-12 -4 -13 -8 -5 -13 9 -5 9 -9 1 -14 -11 -7 -15 5 -12 32 2 10 -4 9 -22 -3
-17 -11 -27 -13 -32 -5 -3 6 -10 8 -15 5 -4 -3 -6 4 -3 15 8 28 22 35 17 8 -2
-13 -1 -17 2 -9 5 11 8 11 15 0 8 -11 13 -10 27 7 18 21 19 21 30 3 10 -16 16
-17 33 -8 26 13 36 5 19 -16 -13 -16 -10 -18 14 -9 9 3 13 11 9 17 -3 5 -1 7
5 3 6 -3 13 -2 17 4 3 5 1 10 -6 10 -7 0 -9 3 -6 6 4 4 18 -1 32 -10 14 -9 25
-14 25 -10 0 4 7 0 17 -7 15 -13 15 -12 4 8 -10 19 -9 22 4 17 8 -3 13 -10 10
-14 -3 -5 4 -8 15 -7 25 2 26 13 3 26 -20 12 -13 14 11 5 9 -3 16 -14 17 -23
0 -15 1 -15 12 1 10 15 12 15 25 0 11 -14 14 -14 19 -3 5 11 7 11 14 0 7 -11
9 -10 9 3 0 9 4 19 9 22 5 4 7 -4 4 -16 -4 -19 -3 -21 7 -8 10 13 11 13 6 -2
-3 -10 -1 -20 4 -23 6 -4 10 -1 10 5 0 6 4 9 9 5 5 -3 12 -1 16 5 4 6 10 8 15
5 4 -3 10 2 14 10 3 8 11 15 18 15 9 0 9 -3 -2 -10 -8 -5 -11 -12 -7 -16 4 -4
13 -2 19 4 8 8 15 9 25 1 16 -14 18 2 2 18 -8 8 -7 13 2 18 8 6 10 4 5 -4 -5
-8 0 -14 13 -18 25 -6 27 -16 4 -34 -15 -12 -16 -12 -8 1 4 8 5 12 0 8 -4 -4
-14 -3 -21 3 -10 8 -15 7 -20 -4 -6 -15 -20 -17 -41 -4 -6 4 -14 3 -17 -2 -4
-5 -2 -13 4 -16 8 -5 7 -11 -1 -21 -6 -8 -9 -17 -5 -21 3 -3 6 0 6 8 1 10 5 8
15 -5 8 -11 15 -15 15 -10 0 6 -5 15 -10 20 -8 8 -6 15 6 25 16 12 17 12 11
-3 -9 -25 7 -30 29 -10 10 10 21 20 24 23 3 2 20 -7 38 -19 l32 -23 9 23 c6
13 10 16 11 8 0 -13 1 -13 10 0 6 10 10 11 10 3 0 -7 5 -13 11 -13 5 0 7 5 3
12 -4 6 -3 8 3 5 6 -4 27 5 48 19 29 19 40 22 51 13 8 -6 14 -8 14 -4 0 4 7 1
17 -6 15 -13 15 -12 4 8 -10 19 -9 22 4 17 8 -3 12 -10 9 -15 -3 -5 0 -9 7 -9
10 0 10 -3 1 -12 -9 -9 -15 -9 -24 0 -6 6 -17 8 -27 3 -9 -5 -23 -7 -32 -6
-10 2 -16 -4 -15 -16 1 -20 6 -22 31 -13 8 3 12 10 9 15 -7 12 25 6 53 -9 27
-15 45 -16 20 -1 -28 16 -3 38 39 35 19 -2 37 0 39 4 3 5 13 6 24 3 12 -3 25
4 36 19 11 15 15 17 12 6 -4 -10 -2 -18 3 -18 6 0 10 5 10 10 0 6 5 10 11 10
8 0 7 -5 -2 -16 -11 -14 -10 -15 7 -12 10 1 22 7 26 13 4 5 10 6 15 2 4 -5 1
-12 -7 -17 -9 -6 -10 -10 -3 -10 6 0 15 5 18 10 4 7 12 7 25 0 26 -14 34 -12
21 4 -9 11 -9 16 0 22 7 4 9 3 5 -4 -3 -6 -2 -13 4 -17 5 -3 10 -1 10 4 0 6
10 11 23 10 15 0 17 -2 7 -6 -8 -3 -26 -14 -39 -24 -25 -20 -46 -25 -36 -10 3
5 0 13 -6 17 -7 4 -9 3 -6 -3 8 -13 -24 -13 -40 0 -9 6 -13 6 -13 -2 0 -6 -3
-10 -7 -10 -38 6 -43 -13 -8 -29 21 -10 27 -9 31 3 8 21 19 19 33 -7 l11 -23
-6 23 c-5 22 -4 23 15 12 17 -9 22 -8 27 5 3 8 10 12 16 9 5 -3 4 -11 -3 -20
-8 -10 -8 -14 0 -14 6 0 11 4 11 10 0 5 8 7 18 3 11 -4 8 1 -8 15 -28 24 -32
21 45 27 17 2 35 4 40 5 6 1 17 2 27 1 9 -1 24 8 33 21 12 15 15 17 12 6 -4
-10 -2 -18 3 -18 6 0 10 5 10 12 0 6 6 3 14 -7 7 -10 20 -16 29 -12 8 3 18 3
21 0 3 -4 18 -8 32 -9 19 -2 23 0 15 9 -7 9 -7 17 1 27 8 12 9 12 4 -2 -3 -10
2 -22 12 -27 9 -6 13 -11 9 -11 -12 0 12 -40 24 -40 6 0 3 7 -6 16 -21 22 -5
33 42 29 18 -1 36 1 38 5 3 5 14 6 24 3 13 -3 24 2 33 16 14 23 30 28 26 9 -2
-7 2 -12 7 -13 6 0 15 -4 22 -8 6 -4 14 -3 18 3 3 5 0 10 -7 11 -10 0 -11 2 0
6 10 4 10 8 0 21 -10 15 -10 15 2 4 8 -7 15 -18 15 -25z m-1598 8 c0 -8 -4
-12 -9 -9 -5 3 -6 10 -3 15 9 13 12 11 12 -6z m120 0 c0 -8 -4 -12 -9 -9 -5 3
-6 10 -3 15 9 13 12 11 12 -6z m560 0 c0 -8 -4 -12 -9 -9 -5 3 -6 10 -3 15 9
13 12 11 12 -6z m148 -12 c-11 -7 -24 -13 -29 -13 -6 1 -1 6 12 13 12 7 19 17
15 22 -4 4 -2 5 6 0 12 -7 11 -10 -4 -22z m320 0 c-11 -7 -24 -13 -29 -13 -6
1 -1 6 12 13 12 7 19 17 15 22 -4 4 -2 5 6 0 12 -7 11 -10 -4 -22z m320 0
c-11 -7 -24 -13 -29 -13 -6 1 -1 6 12 13 12 7 19 17 15 22 -4 4 -2 5 6 0 12
-7 11 -10 -4 -22z m-1719 5 c3 -4 -1 -5 -10 -4 -8 1 -18 5 -22 8 -3 4 1 5 10
4 8 -1 18 -5 22 -8z m39 2 c-3 -5 -12 -10 -18 -10 -7 0 -6 4 3 10 19 12 23 12
15 0z m165 4 c0 -8 -19 -13 -24 -6 -3 5 1 9 9 9 8 0 15 -2 15 -3z m320 2 c0
-2 -7 -6 -15 -10 -8 -3 -15 -1 -15 4 0 6 7 10 15 10 8 0 15 -2 15 -4z m79 -9
c14 4 14 3 1 -6 -21 -15 -27 -14 -35 7 -5 13 -3 14 6 5 6 -6 19 -9 28 -6z
m188 -2 c0 -8 -4 -12 -9 -9 -4 3 -8 9 -8 15 0 5 4 9 8 9 5 0 9 -7 9 -15z m314
-8 c-10 -9 -11 -8 -5 6 3 10 9 15 12 12 3 -3 0 -11 -7 -18z m320 0 c-10 -9
-11 -8 -5 6 3 10 9 15 12 12 3 -3 0 -11 -7 -18z m320 0 c-10 -9 -11 -8 -5 6 3
10 9 15 12 12 3 -3 0 -11 -7 -18z m-1677 -2 c3 -8 1 -15 -4 -15 -6 0 -10 7
-10 15 0 8 2 15 4 15 2 0 6 -7 10 -15z m1486 5 c8 -5 11 -10 5 -10 -5 0 -17 5
-25 10 -8 5 -10 10 -5 10 6 0 17 -5 25 -10z m-1649 -17 c13 -16 12 -17 -3 -4
-17 13 -22 21 -14 21 2 0 10 -8 17 -17z m1129 13 c0 -3 -4 -8 -10 -11 -5 -3
-10 -1 -10 4 0 6 5 11 10 11 6 0 10 -2 10 -4z m320 0 c0 -3 -4 -8 -10 -11 -5
-3 -10 -1 -10 4 0 6 5 11 10 11 6 0 10 -2 10 -4z m283 -3 c-7 -2 -19 -2 -25 0
-7 3 -2 5 12 5 14 0 19 -2 13 -5z m37 3 c0 -3 -4 -8 -10 -11 -5 -3 -10 -1 -10
4 0 6 5 11 10 11 6 0 10 -2 10 -4z m1750 0 c0 -2 -8 -10 -17 -17 -16 -13 -17
-12 -4 4 13 16 21 21 21 13z m-3278 -48 c-3 -14 -8 -15 -23 -7 -23 12 -17 28
10 26 12 -1 17 -7 13 -19z m538 19 c0 -2 -10 -12 -21 -23 -22 -19 -22 -19 -10
4 10 18 31 31 31 19z m1184 -5 c3 -5 -1 -9 -9 -9 -8 0 -12 4 -9 9 3 4 7 8 9 8
2 0 6 -4 9 -8z m-1957 -17 c0 -8 -4 -12 -9 -9 -5 3 -6 10 -3 15 9 13 12 11 12
-6z m48 5 c3 -5 2 -10 -4 -10 -5 0 -13 5 -16 10 -3 6 -2 10 4 10 5 0 13 -4 16
-10z m937 -12 c-7 -7 -12 -8 -12 -2 0 14 12 26 19 19 2 -3 -1 -11 -7 -17z
m292 7 c-3 -8 -12 -11 -20 -8 -20 7 -17 18 5 20 13 1 18 -3 15 -12z m-1132
-20 c0 -5 -5 -11 -10 -13 -5 -1 -9 4 -9 13 0 9 4 14 9 13 5 -2 10 -8 10 -13z
m-137 -15 c3 -6 -1 -7 -9 -4 -18 7 -21 14 -7 14 6 0 13 -4 16 -10z m2170 -19
c3 -5 2 -12 -3 -15 -5 -3 -9 1 -9 9 0 17 3 19 12 6z m-2189 -23 c3 -4 -1 -5
-10 -4 -8 1 -18 5 -22 8 -3 4 1 5 10 4 8 -1 18 -5 22 -8z m-7 -95 c-9 -10 -15
-11 -26 -2 -7 7 -11 15 -7 18 4 3 9 0 11 -7 3 -6 9 -10 14 -6 5 3 5 14 -2 27
-10 21 -9 21 5 3 12 -15 13 -23 5 -33z m2215 -15 c-4 -6 -10 -5 -15 3 -5 8 -9
11 -9 7 0 -5 1 -9 2 -10 1 -2 -5 -14 -12 -28 -21 -38 -23 -69 -5 -76 14 -6 13
-9 -5 -21 -12 -8 -19 -21 -16 -29 3 -7 0 -16 -7 -20 -7 -4 -9 -4 -5 1 4 4 3
14 -3 21 -8 9 -5 16 11 24 11 6 18 16 14 21 -3 6 -11 3 -18 -7 -8 -11 -18 -14
-26 -9 -10 6 -8 10 7 16 21 8 24 23 10 46 -4 7 4 20 19 32 15 12 23 21 19 21
-4 0 -2 6 5 14 13 16 44 10 34 -6z m-8 -50 c4 -7 3 -8 -4 -4 -7 4 -12 2 -12
-5 0 -7 -3 -10 -6 -6 -6 5 3 27 11 27 2 0 7 -5 11 -12z m-6 -40 c0 -4 -4 -8
-9 -8 -6 0 -12 4 -15 8 -3 5 1 9 9 9 8 0 15 -4 15 -9z m-2225 -78 c3 -5 1 -10
-4 -10 -6 0 -11 5 -11 10 0 6 2 10 4 10 3 0 8 -4 11 -10z m62 -77 c-4 -3 -2
-12 4 -19 8 -9 5 -16 -11 -24 -11 -6 -18 -16 -14 -21 3 -6 11 -3 18 7 8 11 18
14 26 9 10 -6 8 -10 -7 -16 -21 -8 -24 -23 -10 -46 4 -7 -3 -20 -18 -31 -13
-11 -22 -22 -19 -24 2 -3 -2 -10 -9 -17 -11 -9 -17 -8 -27 4 -9 10 -9 15 -1
15 6 0 11 -5 11 -11 0 -5 5 -7 11 -4 6 4 8 9 5 12 -3 3 0 15 6 27 19 34 20 66
3 72 -14 6 -13 9 5 21 12 8 19 21 16 28 -4 12 2 25 12 25 3 0 2 -3 -1 -7z
m2183 -3 c0 -5 -2 -10 -4 -10 -3 0 -8 5 -11 10 -3 6 -1 10 4 10 6 0 11 -4 11
-10z m-2216 -78 c3 -5 -1 -9 -9 -9 -8 0 -15 4 -15 9 0 4 4 8 9 8 6 0 12 -4 15
-8z m2170 -24 c-5 -8 -1 -9 12 -5 18 7 18 7 0 -8 -32 -25 -51 -14 -24 13 15
15 21 15 12 0z m-2176 -10 c-5 -14 -36 -20 -43 -8 -3 5 4 7 15 5 11 -2 20 0
20 6 0 5 3 9 6 9 3 0 4 -5 2 -12z m2142 -14 c0 -8 -5 -12 -10 -9 -6 4 -8 11
-5 16 9 14 15 11 15 -7z m-2075 -64 c-3 -5 -11 -10 -16 -10 -6 0 -7 5 -4 10 3
6 11 10 16 10 6 0 7 -4 4 -10z m-71 -28 c3 -5 -1 -9 -9 -9 -8 0 -12 4 -9 9 3
4 7 8 9 8 2 0 6 -4 9 -8z m2226 -96 c0 -2 -7 -7 -16 -10 -8 -3 -12 -2 -9 4 6
10 25 14 25 6z m-3 -42 c-3 -3 -12 -4 -19 -1 -8 3 -5 6 6 6 11 1 17 -2 13 -5z
m-7 -20 c0 -8 -19 -13 -24 -6 -3 5 1 9 9 9 8 0 15 -2 15 -3z m-2230 -18 c0 -3
-4 -8 -10 -11 -5 -3 -10 -1 -10 4 0 6 5 11 10 11 6 0 10 -2 10 -4z m2217 -41
c0 -8 -4 -12 -9 -9 -5 3 -6 10 -3 15 9 13 12 11 12 -6z m-2202 -4 c3 -5 2 -12
-3 -15 -5 -3 -9 1 -9 9 0 17 3 19 12 6z m2225 -41 c0 -5 -5 -10 -11 -10 -5 0
-7 5 -4 10 3 6 8 10 11 10 2 0 4 -4 4 -10z m-2226 -18 c3 -5 -1 -9 -9 -9 -8 0
-12 4 -9 9 3 4 7 8 9 8 2 0 6 -4 9 -8z m-7 -28 c-3 -3 -12 -4 -19 -1 -8 3 -5
6 6 6 11 1 17 -2 13 -5z m-2 -34 c-3 -5 -12 -10 -18 -10 -7 0 -6 4 3 10 19 12
23 12 15 0z m9 -58 c3 -5 -1 -9 -9 -9 -8 0 -12 4 -9 9 3 4 7 8 9 8 2 0 6 -4 9
-8z m2226 -22 c0 -5 -2 -10 -4 -10 -3 0 -8 5 -11 10 -3 6 -1 10 4 10 6 0 11
-4 11 -10z m-46 -102 c-5 -8 -1 -9 12 -5 18 7 18 7 0 -8 -32 -25 -51 -14 -24
13 15 15 21 15 12 0z m-2180 -23 c-4 -8 -8 -15 -10 -15 -2 0 -4 7 -4 15 0 8 4
15 10 15 5 0 7 -7 4 -15z m2146 -1 c0 -8 -5 -12 -10 -9 -6 4 -8 11 -5 16 9 14
15 11 15 -7z m-2130 -73 c0 -3 -5 -13 -11 -21 -9 -13 -10 -13 -6 1 3 9 0 22
-6 28 -9 9 -8 11 6 6 9 -4 17 -10 17 -14z m-34 -41 c0 -12 -4 -16 -9 -11 -5 5
-6 14 -3 20 10 15 12 14 12 -9z m79 -40 c-10 -11 -21 -17 -24 -14 -3 3 3 12
13 20 28 20 32 17 11 -6z m-18 -37 c-4 -3 -2 -12 4 -19 8 -9 5 -16 -11 -24
-11 -6 -18 -16 -14 -21 3 -6 11 -3 18 7 8 11 18 14 26 9 10 -6 8 -10 -7 -16
-21 -8 -24 -23 -10 -46 4 -7 -3 -20 -18 -31 -13 -11 -22 -22 -19 -24 2 -3 -2
-10 -9 -17 -11 -9 -17 -8 -27 4 -9 10 -9 15 -1 15 6 0 11 -5 11 -11 0 -5 5 -7
11 -4 6 4 8 9 5 12 -3 3 0 15 6 27 19 34 20 66 3 72 -14 6 -13 9 5 21 12 8 19
21 16 28 -4 12 2 25 12 25 3 0 2 -3 -1 -7z m2183 3 c0 -2 -7 -7 -16 -10 -8 -3
-12 -2 -9 4 6 10 25 14 25 6z m-3 -42 c-3 -3 -12 -4 -19 -1 -8 3 -5 6 6 6 11
1 17 -2 13 -5z m-7 -20 c0 -8 -19 -13 -24 -6 -3 5 1 9 9 9 8 0 15 -2 15 -3z
m-2206 -22 c3 -5 -1 -9 -9 -9 -8 0 -15 4 -15 9 0 4 4 8 9 8 6 0 12 -4 15 -8z
m-6 -34 c-5 -14 -36 -20 -43 -8 -3 5 4 7 15 5 11 -2 20 0 20 6 0 5 3 9 6 9 3
0 4 -5 2 -12z m2199 -3 c0 -8 -4 -12 -9 -9 -5 3 -6 10 -3 15 9 13 12 11 12 -6z
m23 -45 c0 -5 -5 -10 -11 -10 -5 0 -7 5 -4 10 3 6 8 10 11 10 2 0 4 -4 4 -10z
m-2226 -58 c3 -5 -1 -9 -9 -9 -8 0 -12 4 -9 9 3 4 7 8 9 8 2 0 6 -4 9 -8z
m2216 -118 c0 -8 -19 -13 -24 -6 -3 5 1 9 9 9 8 0 15 -2 15 -3z m-73 -38 c0
-8 -6 -12 -14 -9 -7 3 -10 9 -7 14 8 14 21 11 21 -5z m73 0 c0 -2 -7 -7 -16
-10 -8 -3 -12 -2 -9 4 6 10 25 14 25 6z m-2235 -26 c3 -5 1 -10 -4 -10 -6 0
-11 5 -11 10 0 6 2 10 4 10 3 0 8 -4 11 -10z m2245 6 c0 -2 -7 -7 -16 -10 -8
-3 -12 -2 -9 4 6 10 25 14 25 6z m6 -49 c4 -3 -3 -5 -15 -2 -11 2 -21 -1 -21
-7 0 -6 -3 -9 -6 -5 -3 3 -3 10 0 15 7 11 31 10 42 -1z m-2201 -27 c-10 -11
-21 -18 -23 -15 -3 3 3 12 14 20 27 20 30 18 9 -5z m2189 -9 c-8 -8 -34 -10
-38 -2 -3 4 6 7 19 7 14 0 22 -2 19 -5z m-2213 -48 c-12 -20 -14 -14 -5 12 4
9 9 14 11 11 3 -2 0 -13 -6 -23z m-21 -15 c0 -4 -4 -8 -9 -8 -6 0 -12 4 -15 8
-3 5 1 9 9 9 8 0 15 -4 15 -9z m2207 -30 c-3 -8 -6 -5 -6 6 -1 11 2 17 5 13 3
-3 4 -12 1 -19z m43 16 c0 -8 -19 -13 -24 -6 -3 5 1 9 9 9 8 0 15 -2 15 -3z
m-2135 -33 c16 -19 16 -20 -4 -18 -11 0 -18 3 -16 6 3 2 0 10 -6 18 -18 21 6
15 26 -6z m-73 -28 c-10 -4 -10 -8 -1 -19 7 -8 10 -16 8 -18 -2 -2 -11 6 -20
18 -16 21 -16 22 5 23 11 0 15 -1 8 -4z m2138 -23 c0 -5 -4 -10 -10 -10 -5 0
-10 5 -10 10 0 6 5 10 10 10 6 0 10 -4 10 -10z m-20 -26 c0 -2 -7 -4 -15 -4
-8 0 -15 4 -15 10 0 5 7 7 15 4 8 -4 15 -8 15 -10z m-1756 -9 c-4 -8 -11 -12
-16 -9 -6 4 -5 10 3 15 19 12 19 11 13 -6z m478 -7 c-7 -7 -12 -8 -12 -2 0 6
3 14 7 17 3 4 9 5 12 2 2 -3 -1 -11 -7 -17z m135 -13 c-11 -8 -14 -16 -8 -19
5 -4 15 3 21 14 9 17 14 19 26 9 8 -6 14 -8 14 -4 0 5 8 1 18 -7 9 -9 24 -18
32 -21 13 -5 13 -6 0 -6 -9 -1 -21 4 -28 11 -7 7 -12 8 -12 2 0 -5 5 -15 11
-21 8 -8 7 -13 -2 -18 -8 -6 -10 -4 -5 4 5 8 0 14 -13 18 -12 3 -21 10 -21 15
0 5 4 7 9 3 5 -3 12 -2 15 3 11 18 -35 9 -48 -9 -12 -17 -14 -18 -20 -4 -6 17
-38 16 -72 -3 -12 -6 -24 -9 -27 -6 -3 3 -8 1 -12 -5 -3 -6 -1 -11 4 -11 6 0
11 -5 11 -11 0 -8 -5 -8 -15 1 -12 10 -13 16 -4 27 7 7 14 11 17 9 2 -3 13 6
24 19 11 15 24 22 31 18 23 -14 39 -11 44 8 4 15 9 17 17 9 8 -8 6 -15 -7 -25z
m563 16 c0 -4 -9 -7 -19 -8 -13 -1 -18 3 -15 12 5 13 34 10 34 -4z m544 -13
c-5 -7 -11 -6 -19 5 -7 9 -15 14 -18 10 -4 -3 -2 -12 4 -20 7 -8 8 -13 1 -13
-15 0 -22 26 -10 38 14 14 51 -4 42 -20z m-2049 12 c3 -5 1 -10 -4 -10 -6 0
-11 5 -11 10 0 6 2 10 4 10 3 0 8 -4 11 -10z m-1410 -20 c-3 -5 -12 -10 -18
-10 -7 0 -6 4 3 10 19 12 23 12 15 0z m1375 0 c0 -5 -2 -10 -4 -10 -3 0 -8 5
-11 10 -3 6 -1 10 4 10 6 0 11 -4 11 -10z m-1449 -27 c13 -16 12 -17 -3 -4
-10 7 -18 15 -18 17 0 8 8 3 21 -13z m32 2 c-3 -9 -8 -14 -10 -11 -3 3 -2 9 2
15 9 16 15 13 8 -4z m2777 5 c0 -5 -5 -10 -11 -10 -5 0 -7 5 -4 10 3 6 8 10
11 10 2 0 4 -4 4 -10z m320 0 c0 -5 -5 -10 -11 -10 -5 0 -7 5 -4 10 3 6 8 10
11 10 2 0 4 -4 4 -10z m397 -5 c0 -8 -4 -12 -9 -9 -5 3 -6 10 -3 15 9 13 12
11 12 -6z m-1117 -16 c0 -5 -4 -9 -8 -9 -5 0 -9 7 -9 15 0 8 4 12 9 9 4 -3 8
-9 8 -15z m200 11 c8 -5 11 -10 5 -10 -5 0 -17 5 -25 10 -8 5 -10 10 -5 10 6
0 17 -5 25 -10z m36 -15 c1 -8 -1 -17 -5 -19 -4 -3 -7 6 -7 19 0 25 8 25 12 0z
m77 10 c-3 -9 -8 -14 -10 -11 -3 3 -2 9 2 15 9 16 15 13 8 -4z m39 2 c-12 -7
-19 -17 -15 -22 4 -4 2 -5 -6 0 -12 7 -11 10 4 22 11 7 24 13 29 13 6 -1 1 -6
-12 -13z m281 -2 c-3 -9 -8 -14 -10 -11 -3 3 -2 9 2 15 9 16 15 13 8 -4z m39
2 c-12 -7 -19 -17 -15 -22 4 -4 2 -5 -6 0 -12 7 -11 10 4 22 11 7 24 13 29 13
6 -1 1 -6 -12 -13z m91 6 c-7 -2 -19 -2 -25 0 -7 3 -2 5 12 5 14 0 19 -2 13
-5z m77 -3 c8 -5 11 -10 5 -10 -5 0 -17 5 -25 10 -8 5 -10 10 -5 10 6 0 17 -5
25 -10z m36 -15 c1 -8 -1 -17 -5 -19 -4 -3 -7 6 -7 19 0 25 8 25 12 0z m-1421
5 c3 -5 1 -10 -4 -10 -6 0 -11 5 -11 10 0 6 2 10 4 10 3 0 8 -4 11 -10z m120
1 c3 -5 2 -12 -3 -15 -5 -3 -9 1 -9 9 0 17 3 19 12 6z m59 1 c3 -5 -1 -9 -9
-9 -8 0 -12 4 -9 9 3 4 7 8 9 8 2 0 6 -4 9 -8z m221 -1 c3 -5 2 -12 -3 -15 -5
-3 -9 1 -9 9 0 17 3 19 12 6z m109 1 c-6 -4 -10 -15 -8 -25 1 -9 -1 -15 -6
-12 -7 4 -7 22 -1 43 1 1 7 2 14 2 8 0 9 -3 1 -8z m529 -9 c-6 -16 -5 -17 13
-3 18 14 18 14 5 -3 -15 -19 -39 -8 -27 12 11 17 16 13 9 -6z m500 0 c-5 -12
-3 -14 8 -8 12 8 12 6 0 -8 -17 -22 -19 -21 -16 6 3 25 3 27 10 27 2 0 1 -7
-2 -17z m-1480 -8 c-3 -9 -8 -14 -10 -11 -3 3 -2 9 2 15 9 16 15 13 8 -4z m34
-7 c-3 -8 -6 -5 -6 6 -1 11 2 17 5 13 3 -3 4 -12 1 -19z m628 13 c3 -5 2 -12
-3 -15 -5 -3 -9 1 -9 9 0 17 3 19 12 6z m250 -11 c10 -11 16 -20 13 -20 -3 0
-13 9 -23 20 -10 11 -16 20 -13 20 3 0 13 -9 23 -20z m145 5 c0 -2 -6 -5 -13
-8 -8 -3 -14 1 -14 8 0 7 6 11 14 8 7 -3 13 -6 13 -8z m171 -2 c13 -16 12 -17
-3 -4 -17 13 -22 21 -14 21 2 0 10 -8 17 -17z m74 8 c3 -5 2 -12 -3 -15 -5 -3
-9 1 -9 9 0 17 3 19 12 6z m142 -6 c0 -8 -4 -12 -9 -9 -5 3 -6 10 -3 15 9 13
12 11 12 -6z m-3342 -12 c11 -15 15 -16 31 -3 18 14 18 14 4 -4 -14 -18 -13
-19 3 -13 40 16 51 18 29 4 -21 -12 -22 -15 -8 -26 14 -11 16 -11 17 5 0 11 3
14 6 6 3 -7 -1 -19 -7 -28 -11 -13 -15 -13 -31 2 -11 10 -19 14 -19 9 0 -4 -7
-2 -15 5 -8 6 -18 9 -24 6 -5 -3 -17 -3 -26 0 -13 5 -14 8 -3 15 10 7 10 9 -1
9 -11 0 -9 4 5 15 24 18 24 18 39 -2z m25 13 c0 -3 -4 -8 -10 -11 -5 -3 -10
-1 -10 4 0 6 5 11 10 11 6 0 10 -2 10 -4z m2040 -6 c0 -5 -5 -10 -11 -10 -5 0
-7 5 -4 10 3 6 8 10 11 10 2 0 4 -4 4 -10z m-1970 -80 c-13 -9 -13 -10 0 -11
8 -1 18 -1 23 0 12 2 8 -17 -5 -26 -25 -15 -35 -10 -32 16 3 33 2 31 17 31 8
0 7 -4 -3 -10z m104 -42 c-3 -4 -11 -5 -19 -1 -21 7 -19 12 4 10 11 0 18 -5
15 -9z m71 -78 c3 -6 -1 -7 -9 -4 -10 4 -16 1 -16 -7 0 -7 -3 -10 -6 -6 -7 7
4 27 16 27 5 0 12 -4 15 -10z m-60 -46 c9 -15 12 -23 6 -20 -11 7 -35 46 -28
46 3 0 12 -12 22 -26z m130 -42 c-3 -3 -11 0 -18 7 -9 10 -8 11 6 5 10 -3 15
-9 12 -12z m35 -80 c0 10 3 9 9 -1 5 -8 7 -21 3 -30 -4 -12 0 -11 19 4 14 12
19 13 11 4 -17 -22 4 -39 42 -35 l29 4 -23 -18 c-15 -11 -19 -19 -11 -24 6 -4
11 -2 11 5 0 8 3 9 13 0 8 -6 17 -7 22 -3 4 4 2 -4 -5 -17 -11 -22 -11 -23 6
-17 18 6 18 5 0 -9 -13 -10 -15 -15 -6 -15 7 0 11 -3 7 -6 -9 -10 -78 48 -73
61 7 20 -22 54 -43 50 -12 -2 -18 2 -17 13 0 9 -4 16 -10 15 -7 -1 -20 7 -30
19 l-19 21 33 -17 c24 -12 32 -13 32 -4z m135 -72 c-3 -5 -12 -10 -18 -10 -7
0 -6 4 3 10 19 12 23 12 15 0z m16 -73 c-10 -9 -11 -8 -5 6 3 10 9 15 12 12 3
-3 0 -11 -7 -18z m54 -27 c-3 -5 -1 -10 6 -10 7 0 4 -7 -7 -16 -17 -14 -17
-15 -1 -10 10 3 16 2 12 -3 -8 -14 17 -20 40 -9 l20 9 -20 -16 c-11 -9 -19
-21 -17 -27 2 -7 -3 -6 -12 2 -9 7 -16 9 -16 5 0 -5 -9 0 -20 10 -19 17 -19
19 -4 37 14 14 14 18 3 18 -11 0 -11 2 1 10 19 12 23 12 15 0z m36 -33 c-10
-9 -11 -8 -5 6 3 10 9 15 12 12 3 -3 0 -11 -7 -18z m46 -32 c0 -8 -4 -12 -9
-9 -5 3 -6 10 -3 15 9 13 12 11 12 -6z m37 -13 c3 -5 -1 -9 -9 -9 -8 0 -12 4
-9 9 3 4 7 8 9 8 2 0 6 -4 9 -8z m82 -154 c3 -29 2 -31 -10 -16 -7 10 -15 15
-18 13 -3 -3 -11 1 -18 10 -8 10 -9 15 -1 15 6 0 11 -6 12 -12 0 -7 5 -3 11
10 14 27 20 23 24 -20z m24 32 c0 -5 -2 -10 -4 -10 -3 0 -8 5 -11 10 -3 6 -1
10 4 10 6 0 11 -4 11 -10z m17 -34 c0 -8 -6 -12 -15 -9 -11 5 -11 7 0 14 7 5
13 9 14 9 0 0 1 -6 1 -14z m8 -45 c-8 -13 42 -54 56 -46 7 5 10 4 6 -2 -6 -9
18 -28 33 -25 3 0 5 -17 6 -39 0 -21 -3 -39 -8 -39 -4 0 -7 3 -7 8 3 19 -2 33
-10 27 -6 -3 -8 6 -5 20 4 25 -4 32 -21 16 -6 -5 -30 11 -60 42 -47 47 -48 50
-22 43 21 -5 27 -4 21 5 -4 8 -3 9 5 5 6 -4 9 -11 6 -15z m130 -60 c3 -5 2
-12 -3 -15 -5 -3 -9 1 -9 9 0 17 3 19 12 6z m-5 -61 c-11 -7 -11 -10 -2 -10 7
0 10 -4 7 -10 -3 -5 -1 -10 4 -10 6 0 11 5 11 12 0 6 3 8 6 5 4 -4 1 -13 -6
-22 -15 -18 -1 -19 22 -1 10 7 15 16 11 19 -3 4 -1 7 5 7 17 0 15 -20 -3 -26
-12 -5 -13 -9 -4 -21 10 -11 14 -11 22 -1 6 9 7 7 3 -6 -9 -28 12 -50 33 -34
14 12 14 11 2 -4 -11 -15 -11 -19 3 -24 9 -3 16 -13 16 -21 0 -8 5 -11 10 -8
6 3 10 0 10 -7 0 -10 3 -9 11 2 9 13 10 12 5 -2 -3 -11 4 -25 20 -37 14 -11
23 -25 19 -31 -4 -7 -11 -8 -18 -1 -7 5 -16 9 -22 9 -5 1 -16 10 -24 22 -12
18 -12 20 5 15 18 -6 18 -6 0 7 -51 36 -66 51 -59 61 4 7 0 8 -11 4 -10 -4
-15 -3 -11 3 3 5 1 19 -5 31 -9 15 -15 18 -23 10 -6 -6 -16 -11 -21 -11 -6 0
-4 5 4 10 10 6 11 10 3 10 -15 0 -45 55 -36 64 4 3 11 6 17 6 6 0 4 -5 -4 -10z
m150 -56 c0 -8 -19 -13 -24 -6 -3 5 1 9 9 9 8 0 15 -2 15 -3z m-40 -13 c0 -6
-4 -12 -8 -15 -5 -3 -9 1 -9 9 0 8 4 15 9 15 4 0 8 -4 8 -9z m38 -33 c-2 -6
-10 -13 -16 -14 -7 -1 -8 0 -2 3 5 2 8 9 4 14 -3 5 0 9 6 9 7 0 10 -5 8 -12z
m75 -83 c-3 -9 -8 -14 -10 -11 -3 3 -2 9 2 15 9 16 15 13 8 -4z m48 -32 c13
-16 12 -17 -3 -4 -17 13 -22 21 -14 21 2 0 10 -8 17 -17z m-16 -42 c-4 -34 19
-50 34 -23 5 9 12 14 15 11 4 -3 -2 -13 -13 -23 -18 -16 -20 -16 -47 9 -16 15
-24 24 -17 21 6 -4 14 3 18 14 9 29 15 25 10 -9z m22 -13 c-3 -7 -5 -2 -5 12
0 14 2 19 5 13 2 -7 2 -19 0 -25z m71 7 c-3 -3 -9 2 -12 12 -6 14 -5 15 5 6 7
-7 10 -15 7 -18z m-23 -35 c3 -5 1 -10 -4 -10 -6 0 -11 5 -11 10 0 6 2 10 4
10 3 0 8 -4 11 -10z m42 -34 c0 -8 -6 -12 -15 -9 -11 5 -11 7 0 14 7 5 13 9
14 9 0 0 1 -6 1 -14z m60 -31 c0 -8 -4 -12 -9 -9 -5 3 -6 10 -3 15 9 13 12 11
12 -6z m32 -63 c7 -13 6 -19 -2 -19 -7 0 -13 9 -13 19 0 10 1 18 3 18 1 0 7
-8 12 -18z m31 -46 c0 -3 -4 -8 -10 -11 -5 -3 -10 -1 -10 4 0 6 5 11 10 11 6
0 10 -2 10 -4z"/>
<path d="M4126 4578 c3 -4 9 -8 15 -8 5 0 9 4 9 8 0 5 -7 9 -15 9 -8 0 -12 -4
-9 -9z"/>
<path d="M1894 3619 c-10 -12 -18 -24 -16 -27 2 -4 -2 -8 -9 -11 -7 -2 -9 1
-4 9 5 9 4 11 -4 6 -16 -10 -4 -25 19 -23 10 1 17 4 14 8 -2 4 4 13 13 20 14
12 15 11 9 -11 -6 -25 -6 -25 5 -2 7 12 16 22 21 22 11 0 10 -17 -2 -25 -5 -3
-10 -12 -10 -18 0 -8 3 -7 9 2 7 11 11 10 20 -5 6 -11 11 -14 11 -7 0 6 -4 14
-10 18 -5 3 -7 12 -3 21 5 15 18 10 18 -7 0 -12 6 -13 33 -5 16 6 22 13 18 24
-5 13 -2 12 9 -2 8 -11 15 -15 15 -10 0 5 9 10 20 11 11 1 20 -2 20 -6 0 -5
11 -8 25 -8 14 0 25 3 25 7 0 14 -25 27 -45 24 -10 -1 -25 2 -31 7 -8 6 -14 6
-18 0 -3 -5 -14 -8 -24 -6 -9 1 -23 -2 -30 -8 -9 -7 -16 -7 -24 1 -6 6 -17 8
-24 5 -8 -3 -14 0 -14 6 0 17 -15 13 -36 -10z m32 -1 c4 -7 4 -10 -1 -6 -4 4
-15 2 -24 -5 -14 -11 -14 -10 -2 6 16 20 18 21 27 5z m138 4 c3 -5 -1 -9 -9
-9 -8 0 -12 4 -9 9 3 4 7 8 9 8 2 0 6 -4 9 -8z m-49 -11 c3 -6 -4 -15 -15 -21
-20 -11 -21 -10 -10 9 12 23 16 25 25 12z m111 -3 c3 -4 -1 -5 -10 -4 -8 1
-18 5 -22 8 -3 4 1 5 10 4 8 -1 18 -5 22 -8z"/>
<path d="M2466 3632 c-3 -5 1 -9 9 -9 8 0 15 4 15 9 0 4 -4 8 -9 8 -6 0 -12
-4 -15 -8z"/>
<path d="M2685 3624 c-23 -17 -39 -18 -29 -1 6 9 5 9 -8 0 -8 -7 -19 -9 -23
-5 -5 4 -5 1 -1 -5 9 -16 1 -16 -24 -3 -13 7 -21 7 -26 -2 -4 -7 -3 -8 4 -4 7
4 12 2 12 -5 0 -7 3 -9 7 -6 3 4 17 0 31 -9 23 -15 37 -12 37 9 0 5 6 12 14
15 8 3 11 0 7 -7 -11 -17 2 -13 23 8 24 24 5 36 -24 15z m-30 -42 c-8 -8 -25
10 -19 20 4 6 9 5 15 -3 4 -7 6 -15 4 -17z"/>
<path d="M3004 3623 c-23 -16 -38 -17 -28 0 6 9 5 9 -8 0 -8 -7 -19 -9 -23 -5
-5 4 -5 1 -1 -5 9 -16 1 -16 -24 -3 -13 7 -21 7 -26 -2 -4 -7 -3 -8 4 -4 7 4
12 2 12 -5 0 -7 3 -9 7 -6 3 4 17 0 31 -9 23 -15 37 -12 37 9 0 5 6 12 14 15
8 3 11 0 7 -7 -4 -6 -2 -11 4 -11 7 0 10 6 7 13 -6 15 29 21 38 6 3 -5 -1 -6
-9 -3 -9 3 -16 1 -16 -6 0 -6 4 -9 9 -6 5 3 11 -1 15 -9 7 -18 36 -9 36 12 0
8 5 11 10 8 6 -4 7 -11 4 -17 -4 -6 -2 -8 4 -5 9 6 9 15 3 46 -1 2 -7 -1 -14
-8 -10 -8 -17 -7 -25 1 -16 16 -46 17 -68 1z m67 -35 c-11 -11 -13 -10 -8 3 3
9 1 22 -4 28 -5 6 -1 4 8 -4 14 -12 15 -17 4 -27z m-96 -6 c-8 -8 -25 10 -19
20 4 6 9 5 15 -3 4 -7 6 -15 4 -17z"/>
<path d="M3285 3620 c-4 -6 -11 -7 -17 -4 -7 4 -8 2 -4 -4 9 -15 1 -15 -24 -2
-13 7 -21 7 -26 -2 -4 -7 -3 -8 4 -4 7 4 12 2 12 -5 0 -7 3 -9 7 -6 3 4 17 0
31 -9 23 -15 37 -12 37 9 0 5 6 12 14 15 8 3 11 0 7 -7 -4 -6 -3 -11 3 -11 5
0 9 9 8 19 -1 15 -5 17 -18 10 -23 -12 -32 -11 -24 1 3 6 4 10 1 10 -3 0 -8
-5 -11 -10z m10 -38 c-8 -8 -25 10 -19 20 4 6 9 5 15 -3 4 -7 6 -15 4 -17z"/>
<path d="M1600 3610 c-8 -5 -12 -12 -9 -15 4 -3 12 1 19 10 14 17 11 19 -10 5z"/>
<path d="M3135 3610 c-9 -15 4 -31 23 -28 12 2 16 -3 14 -17 -2 -15 -1 -17 7
-6 6 9 5 21 -2 32 -14 23 -34 31 -42 19z m20 -10 c3 -5 1 -10 -4 -10 -6 0 -11
5 -11 10 0 6 2 10 4 10 3 0 8 -4 11 -10z"/>
<path d="M2150 3600 c0 -5 5 -10 11 -10 5 0 7 5 4 10 -3 6 -8 10 -11 10 -2 0
-4 -4 -4 -10z"/>
<path d="M2055 3581 c-3 -5 0 -13 6 -17 8 -5 9 -3 4 6 -6 9 -1 10 16 5 19 -5
21 -4 9 4 -19 13 -27 14 -35 2z"/>
<path d="M2270 3580 c0 -5 5 -10 10 -10 6 0 10 5 10 10 0 6 -4 10 -10 10 -5 0
-10 -4 -10 -10z"/>
<path d="M2400 3578 c-12 -8 -12 -9 2 -5 9 3 19 1 22 -6 3 -9 5 -9 5 0 1 18
-13 23 -29 11z"/>
<path d="M2510 3580 c0 -5 5 -10 10 -10 6 0 10 5 10 10 0 6 -4 10 -10 10 -5 0
-10 -4 -10 -10z"/>
<path d="M3534 3575 c10 -8 23 -12 27 -9 5 3 9 0 9 -6 0 -7 -7 -10 -15 -7 -18
8 -32 -13 -15 -23 6 -4 12 -11 13 -16 1 -5 10 -8 21 -6 15 2 16 0 7 -12 -7 -8
-20 -12 -29 -9 -13 4 -14 3 -3 -5 7 -5 18 -16 23 -23 8 -11 9 -10 4 3 -6 21
10 34 17 14 3 -7 -1 -23 -9 -35 -17 -24 -17 -23 13 -26 13 -1 28 4 35 12 9 11
8 13 -2 11 -8 -2 -15 3 -16 10 -1 6 -3 15 -4 20 -1 4 -2 10 -1 15 0 4 -3 7 -7
7 -5 0 -9 6 -10 13 -1 25 -12 61 -20 69 -5 5 -19 10 -33 13 -23 4 -23 4 -5
-10z m41 -44 c-1 -8 -7 -16 -14 -17 -7 -2 -7 0 -1 3 7 3 5 9 -5 17 -15 10 -14
12 3 12 12 0 19 -6 17 -15z m39 -99 c2 -4 -4 -9 -15 -9 -11 -1 -17 2 -14 8 7
11 22 12 29 1z"/>
<path d="M1664 3568 c3 -15 26 -23 26 -8 0 6 -4 9 -9 6 -5 -4 -12 -1 -14 4 -3
6 -4 5 -3 -2z"/>
<path d="M2030 3571 c0 -6 4 -13 10 -16 6 -3 7 1 4 9 -7 18 -14 21 -14 7z"/>
<path d="M2110 3576 c0 -3 9 -10 20 -16 11 -6 20 -8 20 -6 0 3 -9 10 -20 16
-11 6 -20 8 -20 6z"/>
<path d="M2590 3569 c0 -5 5 -7 10 -4 6 3 10 8 10 11 0 2 -4 4 -10 4 -5 0 -10
-5 -10 -11z"/>
<path d="M2683 3570 c-27 -11 -30 -18 -5 -16 10 0 16 -5 14 -14 -2 -8 0 -12 4
-7 6 5 15 50 10 46 -1 0 -11 -4 -23 -9z"/>
<path d="M2910 3569 c0 -5 5 -7 10 -4 6 3 10 8 10 11 0 2 -4 4 -10 4 -5 0 -10
-5 -10 -11z"/>
<path d="M3003 3570 c-27 -11 -30 -18 -5 -16 10 0 16 -5 14 -14 -2 -8 0 -12 4
-7 6 5 15 50 10 46 -1 0 -11 -4 -23 -9z"/>
<path d="M3115 3571 c-3 -5 -2 -12 3 -15 5 -3 9 1 9 9 0 17 -3 19 -12 6z"/>
<path d="M3230 3569 c0 -5 5 -7 10 -4 6 3 10 8 10 11 0 2 -4 4 -10 4 -5 0 -10
-5 -10 -11z"/>
<path d="M3323 3570 c-27 -11 -30 -18 -5 -16 10 0 16 -5 14 -14 -2 -8 0 -12 4
-7 6 5 15 50 10 46 -1 0 -11 -4 -23 -9z"/>
<path d="M2009 3557 c6 -8 7 -18 3 -22 -4 -5 -1 -5 6 -1 10 6 10 11 1 22 -6 8
-14 14 -16 14 -3 0 0 -6 6 -13z"/>
<path d="M2246 3562 c-3 -5 1 -9 9 -9 8 0 12 4 9 9 -3 4 -7 8 -9 8 -2 0 -6 -4
-9 -8z"/>
<path d="M2353 3551 c0 -11 5 -18 9 -15 4 3 5 11 1 19 -7 21 -12 19 -10 -4z"/>
<path d="M2480 3560 c-12 -7 -10 -9 7 -7 12 0 19 5 17 9 -6 10 -6 10 -24 -2z"/>
<path d="M3395 3560 c3 -5 8 -10 11 -10 2 0 4 5 4 10 0 6 -5 10 -11 10 -5 0
-7 -4 -4 -10z"/>
<path d="M1875 3551 c-3 -5 -2 -12 3 -15 5 -3 9 1 9 9 0 17 -3 19 -12 6z"/>
<path d="M3073 3545 c0 -8 4 -12 9 -9 5 3 6 10 3 15 -9 13 -12 11 -12 -6z"/>
<path d="M1840 3540 c-9 -6 -10 -10 -3 -10 6 0 15 5 18 10 8 12 4 12 -15 0z"/>
<path d="M1915 3541 c-3 -5 -2 -12 3 -15 5 -3 9 1 9 9 0 17 -3 19 -12 6z"/>
<path d="M2415 3540 c3 -5 8 -10 11 -10 2 0 4 5 4 10 0 6 -5 10 -11 10 -5 0
-7 -4 -4 -10z"/>
<path d="M3107 3539 c7 -7 15 -10 18 -7 3 3 -2 9 -12 12 -14 6 -15 5 -6 -5z"/>
<path d="M3457 3533 c-10 -9 -9 -23 1 -23 5 0 9 7 9 15 0 17 -1 18 -10 8z"/>
<path d="M1616 3513 c-6 -14 -5 -15 5 -6 7 7 10 15 7 18 -3 3 -9 -2 -12 -12z"/>
<path d="M1516 3508 c3 -5 10 -6 15 -3 13 9 11 12 -6 12 -8 0 -12 -4 -9 -9z"/>
<path d="M1495 3469 c-4 -6 -5 -12 -2 -15 2 -3 7 2 10 11 7 17 1 20 -8 4z"/>
<path d="M3519 3468 c-7 -23 -4 -35 7 -35 9 0 11 4 4 12 -5 7 -7 15 -3 18 3 4
3 7 0 7 -4 0 -7 -1 -8 -2z"/>
<path d="M1507 3424 c-3 -3 -3 -12 -1 -18 3 -7 -2 -19 -11 -26 -16 -13 -21
-35 -6 -25 5 3 12 1 16 -4 3 -6 12 -8 20 -4 27 10 15 -6 -16 -22 -21 -11 -28
-20 -21 -28 5 -7 8 -21 7 -32 -1 -14 5 -21 17 -21 10 0 18 4 18 8 0 4 -5 8
-11 8 -5 0 -7 5 -4 10 10 16 37 -10 30 -29 -4 -11 -1 -10 15 4 23 21 25 26 7
19 -7 -2 -21 4 -31 15 -10 11 -23 18 -27 15 -22 -13 -6 16 16 30 24 16 24 18
11 45 -9 16 -12 31 -9 35 4 3 1 6 -6 6 -7 0 -9 5 -6 10 7 11 2 14 -8 4z m16
-67 c-3 -5 -10 -4 -15 1 -6 6 -7 16 -3 22 6 9 9 9 16 -1 4 -7 5 -17 2 -22z"/>
<path d="M1540 3400 c0 -5 5 -10 11 -10 5 0 7 5 4 10 -3 6 -8 10 -11 10 -2 0
-4 -4 -4 -10z"/>
<path d="M3535 3380 c3 -5 8 -10 11 -10 2 0 4 5 4 10 0 6 -5 10 -11 10 -5 0
-7 -4 -4 -10z"/>
<path d="M3567 3384 c7 -3 9 -13 6 -22 -4 -14 -3 -14 5 -2 12 16 7 30 -11 29
-9 0 -9 -2 0 -5z"/>
<path d="M1545 3320 c-10 -11 -16 -21 -14 -21 18 -6 47 -5 43 2 -2 4 -12 5
-22 2 -15 -6 -15 -4 2 15 11 12 17 22 14 22 -3 0 -13 -9 -23 -20z"/>
<path d="M3536 3322 c-3 -4 4 -9 15 -9 23 -2 25 3 4 10 -8 4 -16 3 -19 -1z"/>
<path d="M3570 3240 c0 -5 5 -10 10 -10 6 0 10 5 10 10 0 6 -4 10 -10 10 -5 0
-10 -4 -10 -10z"/>
<path d="M1595 3229 c-4 -6 -5 -12 -2 -15 2 -3 7 2 10 11 7 17 1 20 -8 4z"/>
<path d="M3553 3209 c-2 -23 3 -25 10 -4 4 8 3 16 -1 19 -4 3 -9 -4 -9 -15z"/>
<path d="M1557 3195 c-4 -8 -3 -16 1 -19 4 -3 9 4 9 15 2 23 -3 25 -10 4z"/>
<path d="M3516 3173 c-6 -14 -5 -15 5 -6 7 7 10 15 7 18 -3 3 -9 -2 -12 -12z"/>
<path d="M1530 3160 c0 -5 5 -10 10 -10 6 0 10 5 10 10 0 6 -4 10 -10 10 -5 0
-10 -4 -10 -10z"/>
<path d="M3546 3098 c3 -4 12 -4 22 -1 15 5 14 3 -3 -18 l-20 -24 22 19 c25
21 22 35 -7 33 -10 -1 -17 -5 -14 -9z"/>
<path d="M1550 3085 c0 -7 30 -13 34 -7 3 4 -4 9 -15 9 -10 1 -19 0 -19 -2z"/>
<path d="M1537 3035 c-6 -15 10 -32 20 -21 4 3 1 6 -5 6 -6 0 -9 7 -6 15 4 8
4 15 1 15 -3 0 -7 -7 -10 -15z"/>
<path d="M1570 3020 c0 -5 5 -10 11 -10 5 0 7 5 4 10 -3 6 -8 10 -11 10 -2 0
-4 -4 -4 -10z"/>
<path d="M3565 3000 c3 -5 8 -10 11 -10 2 0 4 5 4 10 0 6 -5 10 -11 10 -5 0
-7 -4 -4 -10z"/>
<path d="M1487 2973 c-10 -9 -9 -23 1 -23 5 0 9 7 9 15 0 17 -1 18 -10 8z"/>
<path d="M3576 2965 c-9 -26 -7 -32 5 -12 6 10 9 21 6 23 -2 3 -7 -2 -11 -11z"/>
<path d="M1557 2955 c-4 -8 -3 -16 1 -19 4 -3 9 4 9 15 2 23 -3 25 -10 4z"/>
<path d="M1530 2920 c0 -5 5 -10 10 -10 6 0 10 5 10 10 0 6 -4 10 -10 10 -5 0
-10 -4 -10 -10z"/>
<path d="M3556 2911 c-16 -18 -16 -19 1 -17 10 0 17 -5 16 -11 -2 -7 2 -13 7
-13 13 0 13 17 -1 25 -6 4 -8 13 -5 21 7 19 2 18 -18 -5z"/>
<path d="M3590 2912 c0 -4 5 -13 12 -20 8 -8 8 -15 -2 -26 -7 -9 -15 -14 -19
-12 -4 3 -7 -4 -8 -14 -2 -23 13 -35 23 -19 5 8 3 9 -6 4 -8 -5 -11 -3 -9 4 3
7 9 13 14 13 28 0 39 37 21 66 -8 13 -26 16 -26 4z"/>
<path d="M1551 2884 c0 -11 3 -14 6 -6 3 7 2 16 -1 19 -3 4 -6 -2 -5 -13z"/>
<path d="M1573 2875 c0 -8 4 -12 9 -9 5 3 6 10 3 15 -9 13 -12 11 -12 -6z"/>
<path d="M1566 2842 c-3 -5 1 -9 9 -9 8 0 12 4 9 9 -3 4 -7 8 -9 8 -2 0 -6 -4
-9 -8z"/>
<path d="M3536 2838 c3 -5 10 -6 15 -3 13 9 11 12 -6 12 -8 0 -12 -4 -9 -9z"/>
<path d="M3535 2809 c-4 -6 -5 -12 -2 -15 2 -3 7 2 10 11 7 17 1 20 -8 4z"/>
<path d="M1576 2633 c-6 -14 -5 -15 5 -6 7 7 10 15 7 18 -3 3 -9 -2 -12 -12z"/>
<path d="M1524 2619 c-5 -8 -3 -9 6 -4 8 5 11 3 8 -6 -3 -8 -10 -13 -16 -12
-5 1 -18 -7 -28 -18 -15 -17 -16 -22 -4 -29 8 -5 11 -12 7 -16 -4 -4 -2 -13 4
-21 8 -9 8 -17 2 -25 -6 -7 -9 -21 -8 -30 2 -10 -1 -21 -6 -24 -6 -4 -6 -10 0
-18 5 -6 8 -21 7 -31 -3 -20 10 -45 24 -45 4 0 8 11 8 25 0 14 -4 25 -9 25 -4
0 -7 9 -6 20 1 11 6 20 11 20 5 0 1 7 -10 15 -14 11 -15 14 -2 9 10 -3 18 1
22 13 8 26 7 38 -3 38 -17 0 -22 13 -7 18 9 4 18 2 21 -3 4 -6 12 -10 18 -10
7 0 4 5 -7 11 -15 9 -16 13 -5 20 9 6 10 9 2 9 -6 0 -15 -4 -18 -10 -8 -12
-25 -13 -25 -2 0 5 10 14 23 21 22 11 22 11 -3 5 -22 -6 -23 -5 -11 9 7 9 16
15 20 13 4 -3 7 4 8 14 2 23 -13 35 -23 19z m-13 -42 c-6 -8 -7 -18 -3 -22 4
-5 1 -5 -6 -1 -10 6 -10 11 -1 22 6 8 14 14 16 14 3 0 0 -6 -6 -13z m19 -97
c-6 -11 -16 -17 -22 -14 -7 5 -5 12 7 21 25 18 28 17 15 -7z m-23 -55 c0 -8
-4 -12 -9 -9 -5 3 -6 10 -3 15 9 13 12 11 12 -6z m9 -61 c1 -9 0 -13 -4 -10
-3 4 -7 14 -8 22 -1 9 0 13 4 10 3 -4 7 -14 8 -22z"/>
<path d="M1566 2602 c-3 -5 1 -9 9 -9 8 0 12 4 9 9 -3 4 -7 8 -9 8 -2 0 -6 -4
-9 -8z"/>
<path d="M3536 2598 c3 -5 10 -6 15 -3 13 9 11 12 -6 12 -8 0 -12 -4 -9 -9z"/>
<path d="M1576 2562 c-3 -5 1 -9 9 -9 8 0 12 4 9 9 -3 4 -7 8 -9 8 -2 0 -6 -4
-9 -8z"/>
<path d="M3554 2559 c-4 -7 -3 -9 4 -5 5 3 13 0 15 -6 4 -9 6 -10 6 -1 1 17
-16 25 -25 12z"/>
<path d="M3516 2533 c-6 -14 -5 -15 5 -6 7 7 10 15 7 18 -3 3 -9 -2 -12 -12z"/>
<path d="M1550 2477 c0 -2 6 -10 14 -16 11 -9 16 -9 22 1 4 7 4 10 -1 6 -4 -4
-14 -3 -22 3 -7 6 -13 9 -13 6z"/>
<path d="M3546 2458 c3 -4 12 -4 22 -1 15 5 14 3 -3 -18 l-20 -24 22 19 c25
21 22 35 -7 33 -10 -1 -17 -5 -14 -9z"/>
<path d="M1540 2446 c0 -2 7 -7 16 -10 8 -3 12 -2 9 4 -6 10 -25 14 -25 6z"/>
<path d="M1535 2420 c-3 -5 -1 -18 5 -27 9 -15 10 -14 4 6 -4 17 -3 21 6 16 9
-5 11 -4 6 3 -9 15 -13 15 -21 2z"/>
<path d="M1550 2350 c6 -11 13 -20 16 -20 2 0 0 9 -6 20 -6 11 -13 20 -16 20
-2 0 0 -9 6 -20z"/>
<path d="M3565 2360 c3 -5 8 -10 11 -10 2 0 4 5 4 10 0 6 -5 10 -11 10 -5 0
-7 -4 -4 -10z"/>
<path d="M3576 2325 c-9 -26 -7 -32 5 -12 6 10 9 21 6 23 -2 3 -7 -2 -11 -11z"/>
<path d="M1515 2320 c3 -5 8 -10 11 -10 2 0 4 5 4 10 0 6 -5 10 -11 10 -5 0
-7 -4 -4 -10z"/>
<path d="M3556 2271 c-16 -18 -16 -19 1 -17 10 0 17 -5 16 -11 -2 -7 2 -13 7
-13 13 0 13 17 -1 25 -6 4 -8 13 -5 21 7 19 2 18 -18 -5z"/>
<path d="M3590 2272 c0 -4 5 -13 12 -20 8 -8 8 -15 -2 -26 -7 -9 -15 -14 -19
-12 -4 3 -7 -4 -8 -14 -2 -23 13 -35 23 -19 5 8 3 9 -6 4 -8 -5 -11 -3 -9 4 3
7 9 13 14 13 28 0 39 37 21 66 -8 13 -26 16 -26 4z"/>
<path d="M1555 2231 c-3 -5 -2 -12 3 -15 5 -3 9 1 9 9 0 17 -3 19 -12 6z"/>
<path d="M1530 2200 c0 -5 5 -10 10 -10 6 0 10 5 10 10 0 6 -4 10 -10 10 -5 0
-10 -4 -10 -10z"/>
<path d="M3536 2198 c3 -5 10 -6 15 -3 13 9 11 12 -6 12 -8 0 -12 -4 -9 -9z"/>
<path d="M3535 2169 c-4 -6 -5 -12 -2 -15 2 -3 7 2 10 11 7 17 1 20 -8 4z"/>
<path d="M1550 2125 c0 -7 30 -13 34 -7 3 4 -4 9 -15 9 -10 1 -19 0 -19 -2z"/>
<path d="M1537 2075 c-6 -15 10 -32 20 -21 4 3 1 6 -5 6 -6 0 -9 7 -6 15 4 8
4 15 1 15 -3 0 -7 -7 -10 -15z"/>
<path d="M1570 2060 c0 -5 5 -10 11 -10 5 0 7 5 4 10 -3 6 -8 10 -11 10 -2 0
-4 -4 -4 -10z"/>
<path d="M1488 2013 c-9 -11 -9 -16 1 -22 6 -4 11 -12 10 -17 -1 -5 0 -13 1
-19 2 -5 3 -19 4 -30 1 -14 7 -19 20 -17 12 2 16 -1 10 -9 -4 -8 -3 -10 4 -5
9 5 7 14 -5 33 -19 29 -28 67 -14 59 8 -5 20 13 21 32 1 13 -40 9 -52 -5z m38
-8 c-10 -8 -23 -12 -28 -9 -14 9 -2 19 24 21 22 2 22 1 4 -12z"/>
<path d="M1557 1995 c-4 -8 -3 -16 1 -19 4 -3 9 4 9 15 2 23 -3 25 -10 4z"/>
<path d="M1530 1960 c0 -5 5 -10 10 -10 6 0 10 5 10 10 0 6 -4 10 -10 10 -5 0
-10 -4 -10 -10z"/>
<path d="M3536 1958 c3 -5 10 -6 15 -3 13 9 11 12 -6 12 -8 0 -12 -4 -9 -9z"/>
<path d="M1551 1933 c-1 -17 16 -25 25 -12 4 7 3 9 -4 5 -5 -3 -13 0 -15 6 -4
9 -6 10 -6 1z"/>
<path d="M3535 1931 c-3 -5 -2 -12 3 -15 5 -3 9 1 9 9 0 17 -3 19 -12 6z"/>
<path d="M3557 1911 c-4 -17 -3 -21 5 -13 5 5 8 16 6 23 -3 8 -7 3 -11 -10z"/>
<path d="M1555 1890 c-3 -5 -3 -14 0 -20 10 -16 -11 -12 -25 5 -9 11 -17 12
-32 4 -15 -8 -17 -14 -9 -22 7 -7 7 -15 -1 -26 -10 -13 -10 -14 1 -4 7 6 20 9
29 6 10 -4 13 -2 10 8 -3 8 -11 13 -17 12 -13 -3 -15 13 -2 21 5 3 14 -1 21
-8 6 -8 20 -14 30 -13 14 1 16 4 9 14 -6 7 -8 17 -4 23 3 5 4 10 1 10 -3 0 -8
-4 -11 -10z"/>
<path d="M3556 1857 c3 -10 9 -15 12 -12 3 3 0 11 -7 18 -10 9 -11 8 -5 -6z"/>
<path d="M3513 1833 c0 -9 4 -10 14 -2 7 6 13 12 13 14 0 1 -6 2 -13 2 -8 0
-14 -6 -14 -14z"/>
<path d="M3623 1835 c0 -8 4 -12 9 -9 4 3 8 9 8 15 0 5 -4 9 -8 9 -5 0 -9 -7
-9 -15z"/>
<path d="M1544 1808 c0 -16 2 -16 18 -1 10 9 18 17 18 17 0 1 -8 2 -18 2 -10
0 -18 -8 -18 -18z"/>
<path d="M3545 1800 c-3 -6 1 -7 9 -4 18 7 21 14 7 14 -6 0 -13 -4 -16 -10z"/>
<path d="M1595 1789 c-4 -6 -5 -12 -2 -15 2 -3 7 2 10 11 7 17 1 20 -8 4z"/>
<path d="M3567 1784 c7 -3 9 -13 6 -22 -4 -14 -3 -14 5 -2 12 16 7 30 -11 29
-9 0 -9 -2 0 -5z"/>
<path d="M1536 1765 c-9 -26 -7 -32 5 -12 6 10 9 21 6 23 -2 3 -7 -2 -11 -11z"/>
<path d="M1540 1720 c0 -5 5 -10 11 -10 5 0 7 5 4 10 -3 6 -8 10 -11 10 -2 0
-4 -4 -4 -10z"/>
<path d="M3536 1722 c-3 -4 4 -9 15 -9 23 -2 25 3 4 10 -8 4 -16 3 -19 -1z"/>
<path d="M1507 1703 c-8 -17 -1 -37 13 -40 12 -4 12 -3 1 5 -8 6 -10 12 -3 16
6 4 15 -2 21 -11 6 -10 10 -13 10 -8 0 12 -24 45 -32 45 -3 0 -8 -3 -10 -7z"/>
<path d="M3622 1679 c-1 -17 1 -28 6 -25 5 3 8 14 7 25 -2 33 -11 33 -13 0z"/>
<path d="M3515 1689 c-4 -6 -5 -12 -2 -15 2 -3 7 2 10 11 7 17 1 20 -8 4z"/>
<path d="M1590 1676 c0 -2 8 -10 18 -17 15 -13 16 -12 3 4 -13 16 -21 21 -21
13z"/>
<path d="M1573 1645 c0 -7 7 -11 15 -7 11 4 13 1 7 -8 -5 -9 -4 -11 3 -6 16
10 15 14 -6 25 -14 7 -19 6 -19 -4z"/>
<path d="M3515 1650 c-3 -5 -2 -18 4 -27 7 -14 9 -12 8 10 -2 30 -3 31 -12 17z"/>
<path d="M3495 1610 c-4 -6 -11 -8 -16 -5 -5 4 -9 1 -9 -4 0 -16 16 -13 30 4
7 8 10 15 7 15 -3 0 -9 -5 -12 -10z"/>
<path d="M3552 1613 c-6 -3 -9 -10 -5 -16 4 -6 0 -8 -11 -4 -14 5 -15 3 -6
-13 16 -30 23 -30 54 -3 21 18 26 27 17 36 -8 8 -11 6 -11 -8 0 -17 -1 -17
-12 -3 -7 9 -19 14 -26 11z m16 -40 c-16 -19 -29 -5 -16 17 9 13 14 16 20 7 4
-6 2 -17 -4 -24z"/>
<path d="M1699 1588 c-8 -25 -3 -44 12 -44 16 0 17 2 4 16 -8 9 -12 20 -8 23
3 4 3 7 0 7 -4 0 -7 -1 -8 -2z"/>
<path d="M1953 1575 c0 -8 4 -12 9 -9 5 3 6 10 3 15 -9 13 -12 11 -12 -6z"/>
<path d="M1985 1580 c-3 -6 1 -7 9 -4 18 7 21 14 7 14 -6 0 -13 -4 -16 -10z"/>
<path d="M2193 1575 c0 -8 4 -12 9 -9 5 3 6 10 3 15 -9 13 -12 11 -12 -6z"/>
<path d="M2226 1582 c-3 -5 1 -9 9 -9 8 0 12 4 9 9 -3 4 -7 8 -9 8 -2 0 -6 -4
-9 -8z"/>
<path d="M2370 1580 c0 -5 5 -10 11 -10 5 0 7 5 4 10 -3 6 -8 10 -11 10 -2 0
-4 -4 -4 -10z"/>
<path d="M2436 1582 c-2 -4 -1 -14 4 -22 7 -11 9 -9 7 8 -1 24 -3 26 -11 14z"/>
<path d="M2630 1586 c0 -2 7 -7 16 -10 8 -3 12 -2 9 4 -6 10 -25 14 -25 6z"/>
<path d="M2675 1581 c-3 -5 -2 -12 3 -15 5 -3 9 1 9 9 0 17 -3 19 -12 6z"/>
<path d="M2739 1588 c0 -2 -2 -12 -3 -24 -2 -16 2 -20 16 -16 24 6 32 20 10
18 -9 0 -16 5 -14 12 2 10 -6 18 -9 10z"/>
<path d="M3059 1588 c0 -2 -2 -12 -3 -24 -2 -16 2 -20 16 -16 24 6 32 20 10
18 -9 0 -16 5 -14 12 2 10 -6 18 -9 10z"/>
<path d="M3270 1586 c0 -2 7 -7 16 -10 8 -3 12 -2 9 4 -6 10 -25 14 -25 6z"/>
<path d="M3315 1581 c-3 -5 -2 -12 3 -15 5 -3 9 1 9 9 0 17 -3 19 -12 6z"/>
<path d="M3393 1575 c0 -8 4 -12 9 -9 5 3 6 10 3 15 -9 13 -12 11 -12 -6z"/>
<path d="M3425 1580 c-3 -6 1 -7 9 -4 18 7 21 14 7 14 -6 0 -13 -4 -16 -10z"/>
<path d="M3495 1579 c-4 -6 -4 -13 -1 -16 3 -4 6 -1 6 6 0 7 5 9 12 5 7 -4 8
-3 4 4 -9 15 -13 15 -21 1z"/>
<path d="M1553 1565 c0 -8 6 -16 14 -19 11 -4 11 -1 3 14 -13 24 -17 25 -17 5z"/>
<path d="M1662 1560 c0 -14 2 -19 5 -12 2 6 2 18 0 25 -3 6 -5 1 -5 -13z"/>
<path d="M1810 1576 c0 -2 8 -10 18 -17 15 -13 16 -12 3 4 -13 16 -21 21 -21
13z"/>
<path d="M1793 1555 c0 -8 4 -15 9 -15 4 0 8 4 8 9 0 6 -4 12 -8 15 -5 3 -9
-1 -9 -9z"/>
<path d="M1870 1561 c0 -6 4 -13 10 -16 6 -3 7 1 4 9 -7 18 -14 21 -14 7z"/>
<path d="M2296 1558 c3 -4 11 -5 19 -1 21 7 19 12 -4 10 -11 0 -18 -5 -15 -9z"/>
<path d="M2536 1558 c3 -4 11 -5 19 -1 21 7 19 12 -4 10 -11 0 -18 -5 -15 -9z"/>
<path d="M2577 1556 c-8 -19 32 -61 45 -48 14 14 0 33 -20 30 -11 -2 -16 3
-14 15 3 20 -4 23 -11 3z m43 -36 c0 -5 -2 -10 -4 -10 -3 0 -8 5 -11 10 -3 6
-1 10 4 10 6 0 11 -4 11 -10z"/>
<path d="M2633 1555 c0 -8 4 -12 9 -9 5 3 6 10 3 15 -9 13 -12 11 -12 -6z"/>
<path d="M3217 1556 c-8 -19 32 -61 45 -48 14 14 0 33 -20 30 -11 -2 -16 3
-14 15 3 20 -4 23 -11 3z m43 -36 c0 -5 -2 -10 -4 -10 -3 0 -8 5 -11 10 -3 6
-1 10 4 10 6 0 11 -4 11 -10z"/>
<path d="M3273 1555 c0 -8 4 -12 9 -9 5 3 6 10 3 15 -9 13 -12 11 -12 -6z"/>
<path d="M3354 1558 c3 -10 9 -26 12 -35 4 -13 1 -12 -11 4 -18 23 -45 21 -45
-4 0 -8 -5 -11 -10 -8 -6 4 -7 11 -4 17 4 6 2 8 -4 5 -9 -6 -9 -15 -3 -46 1
-2 7 1 14 8 10 8 17 7 25 -1 19 -19 40 -17 59 5 10 12 14 18 8 14 -5 -4 -17 7
-28 25 -10 18 -16 25 -13 16z m19 -52 c7 4 8 3 4 -1 -21 -23 -67 0 -52 25 5 8
12 4 22 -9 8 -12 20 -18 26 -15z"/>
<path d="M2238 1553 c7 -3 16 -2 19 1 4 3 -2 6 -13 5 -11 0 -14 -3 -6 -6z"/>
<path d="M2371 1553 c-1 -18 13 -23 29 -11 12 8 12 9 -2 5 -9 -3 -19 -1 -22 6
-3 9 -5 9 -5 0z"/>
<path d="M2835 1550 c-3 -5 -1 -10 4 -10 6 0 11 5 11 10 0 6 -2 10 -4 10 -3 0
-8 -4 -11 -10z"/>
<path d="M3155 1550 c-3 -5 -1 -10 4 -10 6 0 11 5 11 10 0 6 -2 10 -4 10 -3 0
-8 -4 -11 -10z"/>
<path d="M2270 1540 c0 -5 5 -10 10 -10 6 0 10 5 10 10 0 6 -4 10 -10 10 -5 0
-10 -4 -10 -10z"/>
<path d="M2510 1540 c0 -5 5 -10 10 -10 6 0 10 5 10 10 0 6 -4 10 -10 10 -5 0
-10 -4 -10 -10z"/>
<path d="M2683 1543 c-7 -3 -13 -11 -13 -19 0 -9 -5 -12 -10 -9 -6 4 -7 11 -4
17 4 6 2 8 -4 5 -9 -6 -9 -15 -3 -46 1 -2 7 2 15 8 10 8 16 8 25 -2 13 -16 37
-16 68 1 28 15 36 15 27 0 -6 -10 -5 -10 8 -1 8 7 19 9 23 5 5 -4 5 -1 1 6 -9
15 -1 15 24 2 13 -7 21 -7 26 2 4 7 3 8 -4 4 -7 -4 -12 -2 -12 5 0 7 -3 9 -7
6 -3 -4 -17 0 -31 9 -23 15 -37 12 -37 -8 0 -6 -6 -13 -14 -16 -8 -3 -11 0 -7
7 4 6 2 11 -4 11 -7 0 -10 -6 -7 -13 6 -15 -29 -21 -38 -6 -3 5 1 6 9 3 10 -4
16 -1 16 7 0 7 -3 9 -7 6 -3 -4 -11 -1 -17 7 -6 8 -17 12 -23 9z m14 -17 c-3
-7 -1 -19 4 -25 5 -6 2 -5 -7 3 -9 8 -13 19 -10 25 10 16 19 14 13 -3z m108 5
c3 -5 1 -12 -4 -15 -5 -3 -11 1 -15 9 -6 16 9 21 19 6z"/>
<path d="M3099 1545 c-1 -3 -2 -10 -3 -17 0 -6 -7 -13 -15 -16 -8 -3 -11 0 -7
7 11 17 -2 13 -23 -8 -24 -24 -5 -36 24 -15 23 17 39 18 29 2 -6 -10 -5 -10 8
-1 8 7 19 9 23 5 5 -4 5 -1 1 6 -9 15 -1 15 24 2 13 -7 21 -7 26 2 4 7 3 8 -4
4 -7 -4 -12 -2 -12 4 0 6 -4 9 -9 6 -4 -3 -17 1 -27 9 -20 15 -33 19 -35 10z
m26 -14 c3 -5 1 -12 -4 -15 -5 -3 -11 1 -15 9 -6 16 9 21 19 6z"/>
<path d="M3387 1539 c13 -12 31 -15 30 -4 -1 5 -10 10 -20 10 -10 1 -14 -2
-10 -6z"/>
<path d="M1575 1520 c-8 -13 15 -24 27 -12 6 6 4 11 -6 15 -8 3 -18 2 -21 -3z"/>
<path d="M1710 1507 c0 -2 6 -10 14 -16 11 -9 16 -9 22 1 4 7 4 10 -1 6 -4 -4
-14 -3 -22 3 -7 6 -13 9 -13 6z"/>
<path d="M1910 1488 c0 -4 4 -8 9 -8 6 0 12 4 15 8 3 5 -1 9 -9 9 -8 0 -15 -4
-15 -9z"/>
<path d="M2310 1488 c0 -4 4 -8 9 -8 6 0 12 4 15 8 3 5 -1 9 -9 9 -8 0 -15 -4
-15 -9z"/>
<path d="M1670 1479 c0 -5 5 -7 10 -4 6 3 10 8 10 11 0 2 -4 4 -10 4 -5 0 -10
-5 -10 -11z"/>
<path d="M3621 3366 c-9 -11 -9 -16 1 -22 7 -4 10 -4 6 1 -4 4 -3 14 3 22 6 7
9 13 6 13 -2 0 -10 -6 -16 -14z"/>
<path d="M1493 3053 c4 -3 1 -13 -6 -22 -11 -14 -10 -14 5 -2 16 12 16 31 1
31 -4 0 -3 -3 0 -7z"/>
<path d="M1493 2093 c4 -3 1 -13 -6 -22 -11 -14 -10 -14 5 -2 16 12 16 31 1
31 -4 0 -3 -3 0 -7z"/>
<path d="M2389 1493 c-12 -16 -12 -17 2 -6 9 7 20 9 24 5 5 -4 5 -1 1 6 -9 16
-11 15 -27 -5z"/>
<path d="M35 1430 c-3 -5 0 -10 7 -10 10 0 9 -3 -2 -11 -12 -9 -12 -10 4 -5
10 4 25 1 32 -5 10 -8 14 -8 14 0 0 6 -4 11 -9 11 -5 0 -16 7 -25 15 -9 9 -17
11 -21 5z"/>
<path d="M100 1396 c0 -2 8 -10 18 -17 15 -13 16 -12 3 4 -13 16 -21 21 -21
13z"/>
<path d="M155 1330 c3 -5 8 -10 11 -10 2 0 4 5 4 10 0 6 -5 10 -11 10 -5 0 -7
-4 -4 -10z"/>
<path d="M509 968 c15 -20 41 -24 41 -7 0 6 -6 9 -14 6 -7 -3 -20 0 -27 6 -11
10 -11 9 0 -5z"/>
<path d="M620 856 c0 -2 7 -9 15 -16 9 -7 15 -8 15 -2 0 5 -7 12 -15 16 -8 3
-15 4 -15 2z"/>
<path d="M879 602 c13 -11 32 -29 41 -42 14 -18 19 -20 25 -9 5 8 5 11 0 7 -4
-4 -16 4 -27 17 -11 14 -29 30 -41 36 -20 9 -20 8 2 -9z"/>
<path d="M1110 376 c0 -2 8 -10 18 -17 15 -13 16 -12 3 4 -13 16 -21 21 -21
13z"/>
<path d="M1175 301 c-3 -5 -1 -12 5 -16 5 -3 10 -3 10 1 0 3 8 0 18 -7 14 -11
13 -10 -2 9 -22 25 -23 25 -31 13z"/>
<path d="M3734 5049 c-3 -6 -2 -15 3 -20 5 -5 9 -1 9 11 0 23 -2 24 -12 9z"/>
<path d="M3757 4984 c-10 -14 -13 -25 -7 -29 5 -3 10 -2 10 4 0 6 11 -1 25
-15 14 -14 23 -29 20 -33 -2 -5 4 -16 15 -26 11 -10 17 -22 14 -26 -3 -5 -1
-9 4 -9 14 0 25 34 13 38 -6 2 -9 8 -6 12 3 5 -4 15 -15 23 -11 7 -17 17 -13
21 4 4 -1 4 -11 0 -15 -6 -17 -4 -11 6 5 8 4 11 -2 7 -6 -4 -14 0 -17 9 -9 24
-7 27 9 14 21 -18 25 -9 5 11 -15 14 -18 13 -33 -7z m71 -77 c-1 -2 4 -12 12
-23 14 -18 14 -18 -2 -5 -10 7 -18 20 -18 29 0 8 3 13 6 10 3 -4 4 -8 2 -11z"/>
<path d="M3827 4955 c3 -8 9 -12 14 -9 12 7 11 11 -5 17 -10 4 -13 1 -9 -8z"/>
<path d="M3873 4905 c0 -8 4 -12 9 -9 5 3 6 10 3 15 -9 13 -12 11 -12 -6z"/>
<path d="M3867 4867 c-9 -23 8 -30 24 -10 8 9 9 14 2 10 -6 -4 -13 -2 -15 5
-3 8 -7 6 -11 -5z"/>
<path d="M3950 4760 c0 -5 4 -10 9 -10 6 0 13 5 16 10 3 6 -1 10 -9 10 -9 0
-16 -4 -16 -10z"/>
<path d="M4040 4731 c0 -7 -5 -9 -12 -5 -6 4 -8 3 -4 -4 3 -5 0 -13 -6 -15 -9
-4 -9 -6 -1 -6 6 -1 9 -10 5 -23 -3 -14 -1 -19 6 -14 6 3 14 0 19 -8 7 -12 11
-12 28 1 12 9 14 14 5 10 -9 -2 -24 1 -35 9 -10 8 -14 14 -9 14 6 0 15 -5 22
-12 9 -9 12 -9 12 0 0 7 -5 12 -11 12 -5 0 -7 4 -4 10 4 6 -1 7 -12 3 -16 -6
-16 -5 -4 10 8 10 11 20 7 24 -3 3 -6 1 -6 -6z"/>
<path d="M4075 4720 c-3 -5 -2 -17 3 -26 8 -15 10 -15 15 0 5 12 3 15 -5 10
-8 -5 -9 -2 -5 9 7 19 2 23 -8 7z"/>
<path d="M4114 4686 c1 -8 5 -18 8 -22 4 -3 5 1 4 10 -1 8 -5 18 -8 22 -4 3
-5 -1 -4 -10z"/>
<path d="M4156 4667 c3 -10 9 -15 12 -12 3 3 0 11 -7 18 -10 9 -11 8 -5 -6z"/>
<path d="M4220 4496 c0 -2 7 -9 15 -16 9 -7 15 -8 15 -2 0 5 -7 12 -15 16 -8
3 -15 4 -15 2z"/>
<path d="M4296 4463 c-4 -5 -12 -9 -17 -9 -5 -1 -12 -2 -16 -3 -5 -1 3 -10 17
-21 15 -12 18 -18 8 -14 -10 3 -18 1 -18 -4 0 -6 10 -9 21 -7 14 3 31 -6 50
-25 16 -15 29 -26 29 -23 0 3 6 0 14 -6 10 -9 16 -9 21 -1 4 6 5 12 4 13 -2 2
-13 9 -23 17 -13 10 -17 10 -12 3 4 -7 3 -13 -3 -13 -15 0 -23 18 -10 25 6 5
-2 15 -21 26 -17 11 -35 17 -41 14 -5 -4 -9 -2 -9 4 0 5 6 11 13 14 6 2 9 7 6
11 -3 3 -9 3 -13 -1z m38 -48 c11 -8 18 -17 15 -19 -2 -3 -15 4 -29 14 -14 11
-20 20 -15 19 6 0 19 -6 29 -14z"/>
<path d="M4331 4447 c2 -1 13 -9 24 -17 19 -14 19 -14 6 3 -7 9 -18 17 -24 17
-6 0 -8 -1 -6 -3z"/>
<path d="M4386 4422 c-3 -5 1 -9 9 -9 8 0 12 4 9 9 -3 4 -7 8 -9 8 -2 0 -6 -4
-9 -8z"/>
<path d="M4415 4380 c3 -5 8 -10 11 -10 2 0 4 5 4 10 0 6 -5 10 -11 10 -5 0
-7 -4 -4 -10z"/>
<path d="M4470 4299 c0 -5 5 -7 10 -4 6 3 10 8 10 11 0 2 -4 4 -10 4 -5 0 -10
-5 -10 -11z"/>
<path d="M4537 4253 c5 -12 3 -14 -7 -8 -9 5 -11 4 -6 -3 10 -17 -3 -15 -20 3
-9 8 -21 15 -27 14 -8 0 -8 -2 1 -6 6 -2 9 -10 5 -16 -3 -7 -2 -9 2 -4 12 10
46 -23 38 -37 -4 -6 1 -5 10 3 19 15 23 26 6 15 -7 -4 -10 -1 -7 7 3 8 11 13
17 11 9 -2 9 3 1 18 -13 24 -22 27 -13 3z"/>
<path d="M4645 4139 c-4 -6 -4 -13 -1 -16 3 -4 6 -1 6 6 0 7 5 9 12 5 7 -4 8
-3 4 4 -9 15 -13 15 -21 1z"/>
<path d="M4695 4100 c3 -5 8 -10 11 -10 2 0 4 5 4 10 0 6 -5 10 -11 10 -5 0
-7 -4 -4 -10z"/>
<path d="M4675 4053 c2 -10 4 -20 5 -23 1 -3 2 -7 2 -10 0 -3 11 -13 24 -23
22 -17 24 -17 34 3 7 13 7 20 0 20 -5 0 -10 -7 -10 -17 0 -22 -13 -8 -17 18
-2 11 1 18 6 14 5 -3 12 -1 16 4 3 6 -4 8 -15 6 -12 -2 -23 2 -27 10 -7 21
-22 19 -18 -2z"/>
<path d="M4867 3919 c7 -7 15 -10 18 -7 3 3 -2 9 -12 12 -14 6 -15 5 -6 -5z"/>
<path d="M4934 3842 c8 -13 -30 -36 -45 -26 -6 3 -5 -3 2 -14 10 -15 17 -18
30 -12 17 9 46 -10 33 -22 -2 -3 3 -8 12 -12 15 -6 15 -5 0 18 -19 30 -21 45
-4 28 7 -7 15 -12 19 -12 9 0 5 27 -6 37 -4 4 -5 3 -2 -3 4 -7 -3 -11 -18 -11
-20 0 -23 2 -15 12 8 10 8 15 -1 21 -7 4 -9 3 -5 -4z"/>
<path d="M5096 3732 c-2 -4 -1 -14 4 -22 7 -11 9 -9 7 8 -1 24 -3 26 -11 14z"/>
<path d="M5068 3687 c4 -14 7 -16 13 -5 7 11 9 10 9 -1 0 -8 2 -12 5 -9 9 9
-5 35 -19 35 -8 0 -11 -8 -8 -20z"/>
<path d="M5010 3680 c0 -5 5 -10 10 -10 6 0 10 5 10 10 0 6 -4 10 -10 10 -5 0
-10 -4 -10 -10z"/>
<path d="M13 1325 c0 -8 4 -12 9 -9 5 3 6 10 3 15 -9 13 -12 11 -12 -6z"/>
<path d="M194 1288 c1 -14 -8 -27 -24 -35 -15 -8 -19 -13 -9 -13 9 0 19 3 23
8 4 4 13 7 19 7 11 0 13 11 8 45 -2 20 -18 9 -17 -12z"/>
<path d="M370 1120 c0 -5 5 -10 10 -10 6 0 10 5 10 10 0 6 -4 10 -10 10 -5 0
-10 -4 -10 -10z"/>
<path d="M353 1049 c-2 -23 3 -25 10 -4 4 8 3 16 -1 19 -4 3 -9 -4 -9 -15z"/>
<path d="M435 940 c-3 -5 -1 -10 4 -10 6 0 11 5 11 10 0 6 -2 10 -4 10 -3 0
-8 -4 -11 -10z"/>
<path d="M514 896 c1 -8 5 -18 8 -22 4 -3 5 1 4 10 -1 8 -5 18 -8 22 -4 3 -5
-1 -4 -10z"/>
<path d="M577 831 c-4 -17 -3 -21 5 -13 5 5 8 16 6 23 -3 8 -7 3 -11 -10z"/>
<path d="M667 751 c-4 -17 -3 -21 5 -13 5 5 8 16 6 23 -3 8 -7 3 -11 -10z"/>
<path d="M713 695 c0 -8 4 -12 9 -9 5 3 6 10 3 15 -9 13 -12 11 -12 -6z"/>
<path d="M747 659 c7 -7 15 -10 18 -7 3 3 -2 9 -12 12 -14 6 -15 5 -6 -5z"/>
<path d="M755 620 c3 -5 8 -10 11 -10 2 0 4 5 4 10 0 6 -5 10 -11 10 -5 0 -7
-4 -4 -10z"/>
<path d="M793 607 c0 -8 6 -14 14 -14 9 0 10 4 2 14 -6 7 -12 13 -14 13 -1 0
-2 -6 -2 -13z"/>
<path d="M1068 353 c7 -3 16 -2 19 1 4 3 -2 6 -13 5 -11 0 -14 -3 -6 -6z"/>
<path d="M1070 296 c0 -2 8 -10 18 -17 15 -13 16 -12 3 4 -13 16 -21 21 -21
13z"/>
<path d="M1110 286 c0 -2 9 -6 20 -9 11 -3 18 -1 14 4 -5 9 -34 13 -34 5z"/>
<path d="M1193 235 c0 -8 6 -16 14 -19 11 -4 11 -1 3 14 -13 24 -17 25 -17 5z"/>
<path d="M1260 171 c0 -10 19 -25 25 -20 1 2 -3 10 -11 17 -8 7 -14 8 -14 3z"/>
<path d="M1304 169 c-3 -6 -1 -15 6 -19 6 -4 12 -11 13 -16 1 -5 5 -8 10 -6 4
1 7 -2 7 -7 0 -5 -8 -12 -17 -14 -17 -4 -17 -5 0 -6 10 0 20 6 23 14 4 8 9 15
13 15 4 0 8 -7 8 -15 0 -8 -4 -15 -8 -15 -5 0 -13 -10 -19 -23 -10 -19 -9 -20
2 -6 13 16 68 24 68 9 0 -3 6 -7 14 -7 11 0 12 4 3 18 -6 10 -14 16 -18 13 -4
-2 -15 -1 -24 2 -13 5 -14 8 -3 15 8 6 9 9 1 9 -6 0 -25 11 -41 25 -21 17 -33
22 -38 14z m29 -17 c15 -16 15 -19 2 -19 -8 0 -13 3 -10 5 3 3 0 11 -6 19 -17
20 -5 16 14 -5z"/>
<path d="M1286 123 c-6 -14 -5 -15 5 -6 7 7 10 15 7 18 -3 3 -9 -2 -12 -12z"/>
<path d="M1362 37 c10 -8 17 -16 15 -18 -1 -2 2 -1 8 3 15 13 28 9 17 -5 -9
-10 -6 -13 13 -13 13 0 21 4 19 8 -3 4 -1 8 5 8 5 0 11 -6 14 -12 2 -7 8 -10
12 -6 12 11 -13 36 -33 33 -9 -1 -23 2 -29 8 -9 6 -13 6 -13 -2 0 -9 -6 -9
-22 -1 -21 10 -21 10 -6 -3z"/>
<path d="M1346 17 c3 -10 9 -15 12 -12 3 3 0 11 -7 18 -10 9 -11 8 -5 -6z"/>
</g>
</svg>
